G04*
G04 #@! TF.GenerationSoftware,Altium Limited,Altium Designer,26.1.1 (7)*
G04*
G04 Layer_Physical_Order=2*
G04 Layer_Color=16711680*
%FSLAX44Y44*%
%MOMM*%
G71*
G04*
G04 #@! TF.SameCoordinates,11DF8F28-643A-421D-AAF6-CDC362FA1963*
G04*
G04*
G04 #@! TF.FilePolarity,Positive*
G04*
G01*
G75*
%ADD10C,0.2540*%
%ADD12C,0.1270*%
%ADD13C,1.4000*%
%ADD14C,0.6000*%
%ADD15R,0.7000X4.0000*%
%ADD16C,0.7000*%
G36*
X1255913Y453206D02*
X1255743Y453049D01*
X1255592Y452876D01*
X1255458Y452686D01*
X1255341Y452480D01*
X1255243Y452257D01*
X1255163Y452017D01*
X1255100Y451761D01*
X1255056Y451488D01*
X1255029Y451199D01*
X1255020Y450893D01*
X1252480Y451123D01*
X1252473Y451427D01*
X1252450Y451718D01*
X1252412Y451995D01*
X1252359Y452258D01*
X1252292Y452507D01*
X1252209Y452743D01*
X1252111Y452965D01*
X1251998Y453173D01*
X1251870Y453367D01*
X1251727Y453548D01*
X1255913Y453206D01*
D02*
G37*
G36*
X1256438Y351068D02*
X1251062D01*
X1252480Y356988D01*
X1255020D01*
X1256438Y351068D01*
D02*
G37*
G36*
X1246438D02*
X1241062D01*
X1242480Y356988D01*
X1245020D01*
X1246438Y351068D01*
D02*
G37*
G36*
X1236438D02*
X1231062D01*
X1232480Y356988D01*
X1235020D01*
X1236438Y351068D01*
D02*
G37*
G36*
X1226439D02*
X1221062D01*
X1222480Y356988D01*
X1225020D01*
X1226439Y351068D01*
D02*
G37*
G36*
X1216439D02*
X1211062D01*
X1212480Y356988D01*
X1215020D01*
X1216439Y351068D01*
D02*
G37*
G36*
X1206439D02*
X1201062D01*
X1202480Y356988D01*
X1205020D01*
X1206439Y351068D01*
D02*
G37*
G36*
X1196439D02*
X1191062D01*
X1192480Y356988D01*
X1195020D01*
X1196439Y351068D01*
D02*
G37*
G36*
X1186439D02*
X1181062D01*
X1182480Y356988D01*
X1185020D01*
X1186439Y351068D01*
D02*
G37*
G36*
X1176439D02*
X1171062D01*
X1172480Y356988D01*
X1175020D01*
X1176439Y351068D01*
D02*
G37*
G36*
X1265020Y356988D02*
X1266438Y351068D01*
X1261062D01*
X1262480Y356988D01*
X1265020D01*
D02*
G37*
G36*
X1275020D02*
X1276438Y351068D01*
X1271062D01*
X1272480Y356988D01*
X1275020D01*
D02*
G37*
G36*
X1285020D02*
X1286438Y351068D01*
X1281062D01*
X1282480Y356988D01*
X1285020D01*
D02*
G37*
G36*
X1295020D02*
X1296438Y351068D01*
X1291062D01*
X1292480Y356988D01*
X1295020D01*
D02*
G37*
G36*
X1305020D02*
X1306438Y351068D01*
X1301062D01*
X1302480Y356988D01*
X1305020D01*
D02*
G37*
G36*
X1262480Y448321D02*
X1262473Y448626D01*
X1262413Y449193D01*
X1262361Y449457D01*
X1262294Y449707D01*
X1262213Y449943D01*
X1262116Y450166D01*
X1262005Y450375D01*
X1261879Y450570D01*
X1261737Y450752D01*
X1265920Y450367D01*
X1265749Y450212D01*
X1265596Y450041D01*
X1265461Y449852D01*
X1265344Y449647D01*
X1265245Y449425D01*
X1265164Y449186D01*
X1265101Y448930D01*
X1265056Y448658D01*
X1265029Y448369D01*
X1265020Y448063D01*
X1262480Y448321D01*
D02*
G37*
G36*
X1272480Y445521D02*
X1272473Y445825D01*
X1272414Y446393D01*
X1272363Y446657D01*
X1272297Y446907D01*
X1272217Y447144D01*
X1272121Y447367D01*
X1272012Y447577D01*
X1271887Y447773D01*
X1271748Y447956D01*
X1275926Y447529D01*
X1275754Y447375D01*
X1275600Y447205D01*
X1275464Y447018D01*
X1275346Y446814D01*
X1275247Y446593D01*
X1275165Y446355D01*
X1275102Y446100D01*
X1275056Y445828D01*
X1275029Y445539D01*
X1275020Y445233D01*
X1272480Y445521D01*
D02*
G37*
G36*
X1282480Y442720D02*
X1282473Y443024D01*
X1282415Y443593D01*
X1282365Y443857D01*
X1282300Y444108D01*
X1282220Y444345D01*
X1282127Y444569D01*
X1282019Y444779D01*
X1281896Y444977D01*
X1281759Y445160D01*
X1285933Y444690D01*
X1285759Y444539D01*
X1285604Y444371D01*
X1285467Y444185D01*
X1285349Y443982D01*
X1285248Y443762D01*
X1285166Y443525D01*
X1285102Y443270D01*
X1285056Y442999D01*
X1285029Y442710D01*
X1285020Y442403D01*
X1282480Y442720D01*
D02*
G37*
G36*
X1292480Y439920D02*
X1292473Y440225D01*
X1292416Y440793D01*
X1292366Y441058D01*
X1292303Y441309D01*
X1292224Y441547D01*
X1292132Y441771D01*
X1292026Y441982D01*
X1291905Y442180D01*
X1291770Y442365D01*
X1295939Y441852D01*
X1295764Y441703D01*
X1295608Y441536D01*
X1295470Y441352D01*
X1295351Y441150D01*
X1295250Y440931D01*
X1295167Y440695D01*
X1295103Y440441D01*
X1295057Y440169D01*
X1295029Y439880D01*
X1295020Y439574D01*
X1292480Y439920D01*
D02*
G37*
G36*
X1302480Y437121D02*
X1302473Y437425D01*
X1302417Y437994D01*
X1302368Y438259D01*
X1302305Y438510D01*
X1302229Y438749D01*
X1302138Y438974D01*
X1302033Y439185D01*
X1301915Y439384D01*
X1301782Y439570D01*
X1305945Y439014D01*
X1305769Y438867D01*
X1305612Y438702D01*
X1305473Y438519D01*
X1305353Y438319D01*
X1305251Y438101D01*
X1305168Y437865D01*
X1305103Y437612D01*
X1305057Y437341D01*
X1305029Y437052D01*
X1305020Y436745D01*
X1302480Y437121D01*
D02*
G37*
G36*
X1315020Y356561D02*
X1316438Y350640D01*
X1311062D01*
X1312480Y356561D01*
X1315020D01*
D02*
G37*
G36*
X1325020Y356988D02*
X1326438Y351068D01*
X1321062D01*
X1322480Y356988D01*
X1325020D01*
D02*
G37*
G36*
X1391933Y357108D02*
X1393351Y351187D01*
X1387975D01*
X1389393Y357108D01*
X1391933D01*
D02*
G37*
G36*
X1312480Y434322D02*
X1312473Y434627D01*
X1312418Y435196D01*
X1312370Y435461D01*
X1312308Y435712D01*
X1312233Y435951D01*
X1312144Y436176D01*
X1312041Y436389D01*
X1311924Y436588D01*
X1311794Y436774D01*
X1315951Y436176D01*
X1315774Y436031D01*
X1315616Y435868D01*
X1315476Y435687D01*
X1315355Y435488D01*
X1315253Y435271D01*
X1315169Y435036D01*
X1315104Y434783D01*
X1315057Y434512D01*
X1315029Y434223D01*
X1315020Y433917D01*
X1312480Y434322D01*
D02*
G37*
G36*
X1322480Y431524D02*
X1322473Y431828D01*
X1322419Y432398D01*
X1322372Y432663D01*
X1322311Y432915D01*
X1322237Y433154D01*
X1322150Y433380D01*
X1322048Y433593D01*
X1321934Y433793D01*
X1321806Y433980D01*
X1325956Y433338D01*
X1325778Y433195D01*
X1325619Y433033D01*
X1325479Y432854D01*
X1325357Y432656D01*
X1325254Y432440D01*
X1325170Y432206D01*
X1325104Y431954D01*
X1325057Y431683D01*
X1325029Y431395D01*
X1325020Y431088D01*
X1322480Y431524D01*
D02*
G37*
G36*
X1401933Y356680D02*
X1403351Y350760D01*
X1397975D01*
X1399393Y356680D01*
X1401933D01*
D02*
G37*
G36*
X1411933Y357108D02*
X1413351Y351187D01*
X1407975D01*
X1409393Y357108D01*
X1411933D01*
D02*
G37*
G36*
X1421933D02*
X1423351Y351187D01*
X1417975D01*
X1419393Y357108D01*
X1421933D01*
D02*
G37*
G36*
X1431933D02*
X1433351Y351187D01*
X1427975D01*
X1429393Y357108D01*
X1431933D01*
D02*
G37*
G36*
X1441933D02*
X1443351Y351187D01*
X1437975D01*
X1439393Y357108D01*
X1441933D01*
D02*
G37*
G36*
X1451933D02*
X1453351Y351187D01*
X1447975D01*
X1449393Y357108D01*
X1451933D01*
D02*
G37*
G36*
X1461933D02*
X1463351Y351187D01*
X1457975D01*
X1459393Y357108D01*
X1461933D01*
D02*
G37*
G36*
X1471933D02*
X1473351Y351187D01*
X1467975D01*
X1469393Y357108D01*
X1471933D01*
D02*
G37*
G36*
X1481933D02*
X1483351Y351187D01*
X1477975D01*
X1479393Y357108D01*
X1481933D01*
D02*
G37*
G36*
X1491933D02*
X1493351Y351187D01*
X1487975D01*
X1489393Y357108D01*
X1491933D01*
D02*
G37*
G36*
X1501933D02*
X1503351Y351187D01*
X1497975D01*
X1499393Y357108D01*
X1501933D01*
D02*
G37*
G36*
X1511933D02*
X1513351Y351187D01*
X1507975D01*
X1509393Y357108D01*
X1511933D01*
D02*
G37*
G36*
X1521933D02*
X1523351Y351187D01*
X1517975D01*
X1519393Y357108D01*
X1521933D01*
D02*
G37*
G36*
X1531933D02*
X1533351Y351187D01*
X1527975D01*
X1529393Y357108D01*
X1531933D01*
D02*
G37*
G36*
X1541933D02*
X1543351Y351187D01*
X1537975D01*
X1539393Y357108D01*
X1541933D01*
D02*
G37*
G36*
X1172480Y473550D02*
X1172472Y473855D01*
X1172447Y474145D01*
X1172405Y474420D01*
X1172347Y474680D01*
X1172273Y474925D01*
X1172181Y475155D01*
X1172074Y475370D01*
X1171949Y475570D01*
X1171808Y475756D01*
X1171650Y475926D01*
X1175850D01*
X1175693Y475756D01*
X1175551Y475570D01*
X1175427Y475370D01*
X1175319Y475155D01*
X1175228Y474925D01*
X1175153Y474680D01*
X1175095Y474420D01*
X1175053Y474145D01*
X1175029Y473855D01*
X1175020Y473550D01*
X1172480D01*
D02*
G37*
G36*
X1182480Y470745D02*
X1182472Y471050D01*
X1182447Y471340D01*
X1182406Y471615D01*
X1182349Y471876D01*
X1182275Y472122D01*
X1182185Y472352D01*
X1182078Y472568D01*
X1181955Y472770D01*
X1181815Y472956D01*
X1181659Y473128D01*
X1185859Y473085D01*
X1185699Y472916D01*
X1185557Y472733D01*
X1185431Y472534D01*
X1185322Y472320D01*
X1185230Y472090D01*
X1185154Y471846D01*
X1185096Y471586D01*
X1185054Y471312D01*
X1185029Y471022D01*
X1185020Y470717D01*
X1182480Y470745D01*
D02*
G37*
G36*
X1192480Y467941D02*
X1192472Y468246D01*
X1192448Y468536D01*
X1192407Y468811D01*
X1192350Y469072D01*
X1192277Y469318D01*
X1192188Y469550D01*
X1192082Y469767D01*
X1191960Y469969D01*
X1191822Y470157D01*
X1191668Y470330D01*
X1195867Y470245D01*
X1195706Y470078D01*
X1195562Y469895D01*
X1195435Y469697D01*
X1195325Y469484D01*
X1195232Y469256D01*
X1195156Y469012D01*
X1195096Y468753D01*
X1195054Y468479D01*
X1195029Y468189D01*
X1195020Y467884D01*
X1192480Y467941D01*
D02*
G37*
G36*
X1202480Y465137D02*
X1202472Y465441D01*
X1202448Y465732D01*
X1202408Y466007D01*
X1202352Y466269D01*
X1202279Y466515D01*
X1202191Y466748D01*
X1202087Y466966D01*
X1201966Y467169D01*
X1201830Y467358D01*
X1201677Y467533D01*
X1205875Y467405D01*
X1205713Y467239D01*
X1205567Y467058D01*
X1205439Y466862D01*
X1205328Y466650D01*
X1205234Y466422D01*
X1205157Y466179D01*
X1205097Y465920D01*
X1205054Y465646D01*
X1205029Y465356D01*
X1205020Y465051D01*
X1202480Y465137D01*
D02*
G37*
G36*
X1212480Y462333D02*
X1212472Y462638D01*
X1212448Y462928D01*
X1212409Y463204D01*
X1212353Y463465D01*
X1212282Y463713D01*
X1212195Y463946D01*
X1212091Y464165D01*
X1211972Y464369D01*
X1211837Y464559D01*
X1211687Y464735D01*
X1215883Y464565D01*
X1215719Y464401D01*
X1215573Y464221D01*
X1215443Y464026D01*
X1215331Y463815D01*
X1215236Y463588D01*
X1215158Y463346D01*
X1215098Y463088D01*
X1215055Y462814D01*
X1215029Y462524D01*
X1215020Y462219D01*
X1212480Y462333D01*
D02*
G37*
G36*
X1222480Y459530D02*
X1222472Y459834D01*
X1222449Y460125D01*
X1222410Y460401D01*
X1222355Y460663D01*
X1222284Y460911D01*
X1222198Y461144D01*
X1222096Y461364D01*
X1221979Y461570D01*
X1221845Y461761D01*
X1221696Y461938D01*
X1225891Y461724D01*
X1225726Y461562D01*
X1225577Y461384D01*
X1225447Y461190D01*
X1225334Y460980D01*
X1225238Y460754D01*
X1225159Y460513D01*
X1225098Y460255D01*
X1225055Y459981D01*
X1225029Y459692D01*
X1225020Y459386D01*
X1222480Y459530D01*
D02*
G37*
G36*
X1232480Y456727D02*
X1232472Y457031D01*
X1232449Y457322D01*
X1232411Y457598D01*
X1232356Y457861D01*
X1232287Y458109D01*
X1232202Y458344D01*
X1232101Y458564D01*
X1231985Y458770D01*
X1231853Y458963D01*
X1231706Y459141D01*
X1235899Y458885D01*
X1235732Y458724D01*
X1235582Y458548D01*
X1235451Y458355D01*
X1235336Y458146D01*
X1235240Y457921D01*
X1235161Y457680D01*
X1235099Y457423D01*
X1235055Y457150D01*
X1235029Y456861D01*
X1235020Y456555D01*
X1232480Y456727D01*
D02*
G37*
G36*
X1242480Y453925D02*
X1242472Y454229D01*
X1242449Y454520D01*
X1242411Y454796D01*
X1242358Y455059D01*
X1242289Y455308D01*
X1242205Y455543D01*
X1242106Y455764D01*
X1241991Y455971D01*
X1241862Y456165D01*
X1241717Y456345D01*
X1245906Y456045D01*
X1245738Y455887D01*
X1245587Y455712D01*
X1245454Y455520D01*
X1245339Y455313D01*
X1245241Y455089D01*
X1245162Y454849D01*
X1245100Y454592D01*
X1245055Y454319D01*
X1245029Y454030D01*
X1245020Y453724D01*
X1242480Y453925D01*
D02*
G37*
G36*
X1336166Y605586D02*
X1334947Y603885D01*
X1333567Y605265D01*
X1335268Y606484D01*
X1336166Y605586D01*
D02*
G37*
G36*
X1331166Y610587D02*
X1329947Y608886D01*
X1328567Y610265D01*
X1330268Y611484D01*
X1331166Y610587D01*
D02*
G37*
G36*
X1350734Y590154D02*
X1349515Y588453D01*
X1348135Y589833D01*
X1349836Y591052D01*
X1350734Y590154D01*
D02*
G37*
G36*
X1346234Y595654D02*
X1345015Y593954D01*
X1343635Y595333D01*
X1345336Y596553D01*
X1346234Y595654D01*
D02*
G37*
G36*
X1341166Y600587D02*
X1339947Y598886D01*
X1338567Y600265D01*
X1340268Y601484D01*
X1341166Y600587D01*
D02*
G37*
G36*
X1355916Y585336D02*
X1354696Y583631D01*
X1353313Y585014D01*
X1355018Y586234D01*
X1355916Y585336D01*
D02*
G37*
G36*
X1358898Y586234D02*
X1360603Y585014D01*
X1359220Y583631D01*
X1358000Y585336D01*
X1358898Y586234D01*
D02*
G37*
G36*
X1364080Y591052D02*
X1365781Y589833D01*
X1364401Y588453D01*
X1363182Y590154D01*
X1364080Y591052D01*
D02*
G37*
G36*
X1368580Y596553D02*
X1370281Y595333D01*
X1368901Y593954D01*
X1367682Y595654D01*
X1368580Y596553D01*
D02*
G37*
G36*
X1373648Y601484D02*
X1375349Y600265D01*
X1373969Y598886D01*
X1372750Y600587D01*
X1373648Y601484D01*
D02*
G37*
G36*
X1378648Y606484D02*
X1380349Y605265D01*
X1378969Y603885D01*
X1377750Y605586D01*
X1378648Y606484D01*
D02*
G37*
G36*
X1383648Y611484D02*
X1385349Y610265D01*
X1383969Y608886D01*
X1382750Y610587D01*
X1383648Y611484D01*
D02*
G37*
G36*
X1373513Y2751620D02*
X1372615Y2750721D01*
X1371296Y2751783D01*
X1372452Y2752939D01*
X1373513Y2751620D01*
D02*
G37*
G36*
X1343721Y2751070D02*
X1339508Y2748928D01*
X1338610Y2749826D01*
X1340751Y2754040D01*
X1343721Y2751070D01*
D02*
G37*
G36*
X1407593Y2746105D02*
X1406323D01*
X1404858Y2750599D01*
X1409058D01*
X1407593Y2746105D01*
D02*
G37*
G36*
X1309058Y2750599D02*
X1307593Y2746105D01*
X1306323Y2746105D01*
X1304858Y2750599D01*
X1309058Y2750599D01*
D02*
G37*
G36*
X1386995Y2730276D02*
X1386594Y2728276D01*
X1385324D01*
X1384944Y2730572D01*
X1386995Y2730276D01*
D02*
G37*
G36*
X1328593Y2728276D02*
X1327323D01*
X1326922Y2730276D01*
X1328972Y2730573D01*
X1328593Y2728276D01*
D02*
G37*
G36*
X1395031Y620583D02*
X1393651Y619203D01*
X1392432Y620904D01*
X1393330Y621802D01*
X1395031Y620583D01*
D02*
G37*
G36*
X1321484Y620904D02*
X1320265Y619203D01*
X1318885Y620583D01*
X1320586Y621802D01*
X1321484Y620904D01*
D02*
G37*
G36*
X1390099Y615515D02*
X1388719Y614136D01*
X1387500Y615836D01*
X1388398Y616735D01*
X1390099Y615515D01*
D02*
G37*
G36*
X1326416Y615836D02*
X1325197Y614136D01*
X1323817Y615515D01*
X1325518Y616735D01*
X1326416Y615836D01*
D02*
G37*
G36*
X1298610Y2789826D02*
X1300751Y2794040D01*
X1303721Y2791070D01*
X1299508Y2788928D01*
X1298610Y2789826D01*
D02*
G37*
G36*
X1319090Y2769306D02*
X1321110Y2773429D01*
X1324365Y2770775D01*
X1320079Y2768499D01*
X1319090Y2769306D01*
D02*
G37*
G36*
X1339620Y2788837D02*
X1341533Y2792852D01*
X1345042Y2790544D01*
X1340704Y2788125D01*
X1339620Y2788837D01*
D02*
G37*
G36*
X1318610Y2809826D02*
X1320751Y2814040D01*
X1323721Y2811070D01*
X1319508Y2808928D01*
X1318610Y2809826D01*
D02*
G37*
G36*
X1353212Y2828125D02*
X1348874Y2830544D01*
X1352383Y2832852D01*
X1354296Y2828837D01*
X1353212Y2828125D01*
D02*
G37*
G36*
X1373212Y2788125D02*
X1368875Y2790544D01*
X1372383Y2792852D01*
X1374296Y2788837D01*
X1373212Y2788125D01*
D02*
G37*
G36*
X1393837Y2768500D02*
X1389552Y2770775D01*
X1392806Y2773429D01*
X1394827Y2769306D01*
X1393837Y2768500D01*
D02*
G37*
G36*
X1414408Y2788928D02*
X1410195Y2791070D01*
X1413165Y2794040D01*
X1415306Y2789826D01*
X1414408Y2788928D01*
D02*
G37*
G36*
X1359621Y2828836D02*
X1361534Y2832852D01*
X1365042Y2830544D01*
X1360705Y2828124D01*
X1359621Y2828836D01*
D02*
G37*
G36*
X1394408Y2808928D02*
X1390195Y2811070D01*
X1393165Y2814040D01*
X1395306Y2809826D01*
X1394408Y2808928D01*
D02*
G37*
D10*
X1243750Y458118D02*
X1243964Y458332D01*
X1243750Y348826D02*
Y458118D01*
X1500663Y348946D02*
Y466789D01*
X1430663Y348946D02*
Y446838D01*
X1540663Y348946D02*
Y478188D01*
X1460663Y348946D02*
Y455388D01*
X1520663Y348946D02*
Y472488D01*
X1390663Y348946D02*
Y435438D01*
X1440663Y348946D02*
Y449688D01*
X1410663Y348946D02*
Y441139D01*
X1480663Y348946D02*
Y461088D01*
X1450663Y348946D02*
Y452538D01*
X1470663Y348946D02*
Y458238D01*
X1530663Y348946D02*
Y475338D01*
X1510663Y348946D02*
Y469638D01*
X1490663Y348946D02*
Y463938D01*
X1420663Y348946D02*
Y443988D01*
X1400663Y348519D02*
Y438289D01*
X1313750Y438169D02*
X1314177Y438596D01*
X1313750Y348399D02*
Y438169D01*
X1263750Y452418D02*
X1264025Y452693D01*
X1293750Y348826D02*
Y443869D01*
X1223750Y348826D02*
Y463818D01*
X1293750Y443869D02*
X1294116Y444235D01*
X1203750Y348826D02*
Y469519D01*
X1183750Y348826D02*
Y475218D01*
X1233750Y460968D02*
X1233933Y461151D01*
X1263750Y348826D02*
Y452418D01*
X1303750Y441019D02*
X1304147Y441415D01*
X1273750Y449568D02*
X1274055Y449874D01*
X1233750Y348826D02*
Y460968D01*
X1323750Y435318D02*
X1324208Y435776D01*
X1303750Y348826D02*
Y441019D01*
X1273750Y348826D02*
Y449568D01*
X1323750Y348826D02*
Y435318D01*
X1253750Y455268D02*
X1253994Y455513D01*
X1193750Y348826D02*
Y472368D01*
X1283750Y446718D02*
X1284086Y447054D01*
X1253750Y348826D02*
Y455268D01*
X1173750Y348826D02*
Y478068D01*
X1283750Y348826D02*
Y446718D01*
X1213750Y348826D02*
Y466669D01*
X1361958Y530082D02*
Y582276D01*
Y530082D02*
X1470663Y458238D01*
X1360484Y583750D02*
X1361958Y582276D01*
X1401958Y541360D02*
Y582276D01*
X1411958Y544180D02*
Y582276D01*
X1421958Y546999D02*
Y582276D01*
X1431958Y549819D02*
Y582276D01*
X1365666Y588568D02*
X1371958Y582276D01*
X1370166Y594069D02*
X1381958Y582277D01*
X1375234Y599000D02*
X1391958Y582276D01*
X1380234Y604000D02*
X1401958Y582276D01*
X1385234Y609000D02*
X1411958Y582276D01*
X1389984Y614250D02*
X1421958Y582276D01*
X1394916Y619318D02*
X1431958Y582276D01*
X1341958D02*
X1348250Y588568D01*
X1331958Y582276D02*
X1343750Y594068D01*
X1321958Y582276D02*
X1338682Y599000D01*
X1311958Y582276D02*
X1333682Y604000D01*
X1301958Y582276D02*
X1328682Y609000D01*
X1291958Y582276D02*
X1323932Y614250D01*
X1281958Y582276D02*
X1319000Y619318D01*
X1281958Y507527D02*
X1390663Y435438D01*
X1291958Y510346D02*
X1400235Y438716D01*
X1301958Y513166D02*
X1410663Y441139D01*
X1281958Y507527D02*
Y582276D01*
X1291958Y510346D02*
Y582276D01*
X1301958Y513166D02*
Y582276D01*
X1311958Y515985D02*
Y582276D01*
X1321958Y518805D02*
Y582276D01*
X1331958Y521624D02*
Y582276D01*
X1341958Y524443D02*
Y582276D01*
X1351958Y527263D02*
Y582276D01*
X1353432Y583750D01*
X1311958Y515985D02*
X1420663Y443988D01*
X1321958Y518805D02*
X1430663Y446838D01*
X1331958Y521624D02*
X1440663Y449688D01*
X1341958Y524443D02*
X1450663Y452538D01*
X1351958Y527263D02*
X1460663Y455388D01*
X1371958Y532902D02*
X1480663Y461088D01*
X1381958Y535721D02*
X1490663Y463938D01*
X1391958Y538541D02*
X1500663Y466788D01*
X1401958Y541360D02*
X1510663Y469638D01*
X1411958Y544180D02*
X1520663Y472488D01*
X1421958Y546999D02*
X1530663Y475338D01*
X1431958Y549819D02*
X1540663Y478189D01*
X1371958Y532902D02*
Y582276D01*
X1381958Y535721D02*
Y582277D01*
X1391958Y538541D02*
Y582277D01*
D12*
X1366958Y2835276D02*
Y2837276D01*
X1358323Y2826641D02*
X1366958Y2835276D01*
X1358323Y2733700D02*
Y2826641D01*
X1358355Y585880D02*
Y2733668D01*
X1358323Y2733700D02*
X1358355Y2733668D01*
Y585879D02*
X1360484Y583750D01*
X1361149Y593085D02*
X1365666Y588568D01*
X1363958Y600276D02*
X1370166Y594069D01*
X1353432Y583750D02*
X1355561Y585879D01*
X1348250Y588568D02*
X1352767Y593085D01*
X1343750Y594069D02*
X1349973Y600291D01*
X1338682Y599001D02*
X1347179Y607497D01*
X1333682Y604000D02*
X1344385Y614703D01*
X1328682Y609001D02*
X1341591Y621909D01*
X1323932Y614250D02*
X1338797Y629115D01*
X1319000Y619318D02*
X1336003Y636321D01*
X1344385Y614703D02*
Y2707637D01*
X1352767Y593086D02*
Y2710737D01*
X1349973Y600291D02*
Y2709471D01*
X1347179Y607497D02*
Y2709055D01*
X1355561Y585880D02*
Y2733668D01*
X1355593Y2733700D01*
X1341591Y621909D02*
Y2707221D01*
X1338797Y2704301D02*
X1338797Y629115D01*
X1336003Y636321D02*
Y2706388D01*
X1338797Y2704276D02*
Y2706805D01*
X1335958Y2723487D02*
X1349973Y2709471D01*
X1338228Y2725276D02*
X1352767Y2710737D01*
X1366737Y607497D02*
X1375234Y599001D01*
X1369531Y614703D02*
X1380234Y604000D01*
X1372325Y621909D02*
X1385234Y609001D01*
X1375119Y629115D02*
X1389984Y614250D01*
X1377913Y636321D02*
X1394916Y619318D01*
X1361149Y593086D02*
Y2710737D01*
X1363943Y2709276D02*
X1363943Y600276D01*
X1366737Y607497D02*
Y2709055D01*
X1369531Y614703D02*
Y2707637D01*
X1372325Y621909D02*
Y2707221D01*
X1375119Y629115D02*
X1375119Y2704301D01*
X1402404Y2730879D02*
Y2735722D01*
X1377913Y2706388D02*
X1402404Y2730879D01*
X1366737Y2709055D02*
X1385959Y2728276D01*
X1375119Y2706805D02*
X1400134Y2731819D01*
X1372325Y2707221D02*
X1397864Y2732759D01*
X1369531Y2707637D02*
X1395594Y2733700D01*
X1385959Y2728276D02*
Y2728641D01*
Y2728276D02*
Y2736277D01*
X1400134Y2731819D02*
Y2738452D01*
X1311513Y2730879D02*
Y2735722D01*
Y2730879D02*
X1336003Y2706388D01*
X1327958Y2728276D02*
X1347179Y2709055D01*
X1313783Y2731819D02*
X1338797Y2706805D01*
X1316053Y2732759D02*
X1341591Y2707221D01*
X1318323Y2733700D02*
X1344385Y2707637D01*
X1327958Y2728276D02*
Y2728641D01*
Y2728276D02*
Y2736277D01*
X1377913Y636321D02*
Y2706388D01*
X1375119Y2704276D02*
Y2706805D01*
X1363943Y2709276D02*
Y2709471D01*
X1377959Y2723487D01*
X1361149Y2710737D02*
X1375689Y2725276D01*
X1313783Y2731819D02*
Y2738452D01*
X1326958Y2737276D02*
X1327958Y2736277D01*
X1385959Y2736277D02*
X1386958Y2737276D01*
X1375689Y2725276D02*
Y2748546D01*
X1338228Y2725276D02*
Y2748546D01*
X1316053Y2732759D02*
Y2749635D01*
X1397864Y2732759D02*
Y2749635D01*
X1306958Y2745276D02*
X1313783Y2738452D01*
X1400134D02*
X1406959Y2745276D01*
X1318323Y2733700D02*
Y2750576D01*
X1395594Y2733700D02*
Y2750576D01*
X1402404Y2735722D02*
X1419959Y2753276D01*
X1293958D02*
Y2784276D01*
Y2753276D02*
X1311513Y2735722D01*
X1306958Y2745276D02*
Y2757276D01*
X1306958Y2757276D01*
X1315958Y2749730D02*
X1316053Y2749635D01*
X1318228Y2750670D02*
Y2767546D01*
Y2750670D02*
X1318323Y2750576D01*
X1335958Y2723487D02*
Y2784276D01*
X1338228Y2748546D02*
X1346958Y2757276D01*
X1346958D01*
X1366958D02*
X1366958D01*
X1373064Y2751170D01*
X1373064D01*
X1375689Y2748546D01*
X1377959Y2723487D02*
Y2784276D01*
X1395594Y2750576D02*
X1395689Y2750670D01*
Y2767546D01*
X1397864Y2749635D02*
X1397959Y2749730D01*
X1406958Y2745277D02*
Y2757276D01*
Y2745277D02*
X1406959Y2745276D01*
X1419959Y2753276D02*
Y2784276D01*
X1293958D02*
X1306958Y2797276D01*
X1315958Y2749730D02*
Y2806277D01*
X1318228Y2767546D02*
X1326958Y2776277D01*
Y2777276D01*
X1335958Y2784276D02*
X1346958Y2795276D01*
Y2797276D01*
X1355593Y2733700D02*
Y2826641D01*
X1366958Y2795277D02*
Y2797276D01*
Y2795277D02*
X1377959Y2784276D01*
X1386958Y2776277D02*
Y2777276D01*
Y2776277D02*
X1395689Y2767546D01*
X1397959Y2749730D02*
Y2806277D01*
X1406958Y2797276D02*
X1419958Y2784276D01*
X1419959D01*
X1306958Y2797276D02*
X1306958D01*
X1315958Y2806277D02*
X1326958Y2817276D01*
X1346958Y2835276D02*
Y2837276D01*
Y2835276D02*
X1355593Y2826641D01*
X1386958Y2817276D02*
X1397958Y2806277D01*
X1397959D01*
D13*
X1306958Y2817276D02*
D03*
Y2777276D02*
D03*
Y2757276D02*
D03*
X1326958Y2737276D02*
D03*
Y2757276D02*
D03*
Y2777276D02*
D03*
Y2797276D02*
D03*
Y2817276D02*
D03*
X1326958Y2837276D02*
D03*
X1346958Y2737276D02*
D03*
Y2757276D02*
D03*
Y2777276D02*
D03*
Y2797276D02*
D03*
Y2817276D02*
D03*
Y2837276D02*
D03*
X1366958Y2737276D02*
D03*
Y2757276D02*
D03*
Y2777276D02*
D03*
Y2797276D02*
D03*
Y2817276D02*
D03*
Y2837276D02*
D03*
X1386958Y2737276D02*
D03*
Y2757276D02*
D03*
Y2777276D02*
D03*
Y2797276D02*
D03*
Y2817276D02*
D03*
Y2837276D02*
D03*
X1406958Y2777276D02*
D03*
Y2757276D02*
D03*
Y2817276D02*
D03*
Y2797276D02*
D03*
X1306958D02*
D03*
D14*
X1243964Y458332D02*
D03*
X1324208Y435776D02*
D03*
X1314177Y438596D02*
D03*
X1304147Y441415D02*
D03*
X1294116Y444235D02*
D03*
X1284086Y447054D02*
D03*
X1274055Y449874D02*
D03*
X1264025Y452693D02*
D03*
X1253994Y455513D02*
D03*
X1233933Y461151D02*
D03*
X1173750Y478068D02*
D03*
X1193811Y472429D02*
D03*
X1203842Y469610D02*
D03*
X1223903Y463971D02*
D03*
X1213872Y466791D02*
D03*
X1183781Y475249D02*
D03*
D15*
X1420663Y303620D02*
D03*
X1390663D02*
D03*
X1480663D02*
D03*
X1450663D02*
D03*
X1510663D02*
D03*
X1440663D02*
D03*
X1410663D02*
D03*
X1500663D02*
D03*
X1540663D02*
D03*
X1470663D02*
D03*
X1400663D02*
D03*
X1460663D02*
D03*
X1530663D02*
D03*
X1430663D02*
D03*
X1490663D02*
D03*
X1520663D02*
D03*
X1243750Y303500D02*
D03*
X1183750D02*
D03*
X1323750D02*
D03*
X1303750D02*
D03*
X1273750D02*
D03*
X1213750D02*
D03*
X1313750D02*
D03*
X1283750D02*
D03*
X1253750D02*
D03*
X1193750D02*
D03*
X1223750D02*
D03*
X1293750D02*
D03*
X1233750D02*
D03*
X1263750D02*
D03*
X1203750D02*
D03*
X1173750D02*
D03*
D16*
X1243750D02*
Y348826D01*
X1540663Y303620D02*
Y348946D01*
X1530663Y303620D02*
Y348946D01*
X1520663Y303620D02*
Y348946D01*
X1510663Y303620D02*
Y348946D01*
X1500663Y303620D02*
Y348946D01*
X1490663Y303620D02*
Y348946D01*
X1480663Y303620D02*
Y348946D01*
X1470663Y303620D02*
Y348946D01*
X1460663Y303620D02*
Y348946D01*
X1450663Y303620D02*
Y348946D01*
X1440663Y303620D02*
Y348946D01*
X1430663Y303620D02*
Y348946D01*
X1420663Y303620D02*
Y348946D01*
X1410663Y303620D02*
Y348946D01*
X1400663Y303620D02*
Y348519D01*
X1390663Y303620D02*
Y348946D01*
X1323750Y303500D02*
Y348826D01*
X1313750Y303500D02*
Y348399D01*
X1303750Y303500D02*
Y348826D01*
X1293750Y303500D02*
Y348826D01*
X1283750Y303500D02*
Y348826D01*
X1273750Y303500D02*
Y348826D01*
X1263750Y303500D02*
Y348826D01*
X1253750Y303500D02*
Y348826D01*
X1233750Y303500D02*
Y348826D01*
X1223750Y303500D02*
Y348826D01*
X1213750Y303500D02*
Y348826D01*
X1203750Y303500D02*
Y348826D01*
X1193750Y303500D02*
Y348826D01*
X1183750Y303500D02*
Y348826D01*
X1173750Y303500D02*
Y348826D01*
M02*
