G04*
G04 #@! TF.GenerationSoftware,Altium Limited,Altium Designer,26.1.1 (7)*
G04*
G04 Layer_Physical_Order=1*
G04 Layer_Color=255*
%FSLAX44Y44*%
%MOMM*%
G71*
G04*
G04 #@! TF.SameCoordinates,11DF8F28-643A-421D-AAF6-CDC362FA1963*
G04*
G04*
G04 #@! TF.FilePolarity,Positive*
G04*
G01*
G75*
%ADD10C,0.2540*%
%ADD12C,0.1270*%
%ADD13C,1.4000*%
%ADD14C,0.6000*%
G36*
X1178215Y479514D02*
X1177966Y479338D01*
X1177738Y479156D01*
X1177532Y478970D01*
X1177348Y478777D01*
X1177185Y478579D01*
X1177045Y478376D01*
X1176925Y478167D01*
X1176827Y477952D01*
X1176751Y477732D01*
X1176697Y477507D01*
X1174370Y481003D01*
X1174600Y480966D01*
X1174832Y480951D01*
X1175068Y480959D01*
X1175306Y480988D01*
X1175548Y481039D01*
X1175794Y481113D01*
X1176042Y481209D01*
X1176294Y481326D01*
X1176550Y481466D01*
X1176808Y481628D01*
X1178215Y479514D01*
D02*
G37*
G36*
X1188245Y476695D02*
X1187996Y476519D01*
X1187769Y476338D01*
X1187563Y476151D01*
X1187378Y475958D01*
X1187216Y475760D01*
X1187075Y475557D01*
X1186956Y475348D01*
X1186858Y475133D01*
X1186782Y474913D01*
X1186728Y474688D01*
X1184401Y478184D01*
X1184630Y478147D01*
X1184862Y478132D01*
X1185098Y478139D01*
X1185336Y478169D01*
X1185579Y478220D01*
X1185824Y478294D01*
X1186072Y478390D01*
X1186324Y478507D01*
X1186580Y478647D01*
X1186838Y478809D01*
X1188245Y476695D01*
D02*
G37*
G36*
X1198276Y473876D02*
X1198026Y473700D01*
X1197799Y473519D01*
X1197593Y473332D01*
X1197409Y473139D01*
X1197246Y472941D01*
X1197105Y472738D01*
X1196986Y472529D01*
X1196889Y472314D01*
X1196813Y472094D01*
X1196758Y471869D01*
X1194431Y475365D01*
X1194660Y475328D01*
X1194892Y475313D01*
X1195128Y475320D01*
X1195367Y475350D01*
X1195609Y475401D01*
X1195854Y475475D01*
X1196103Y475570D01*
X1196355Y475688D01*
X1196610Y475828D01*
X1196868Y475990D01*
X1198276Y473876D01*
D02*
G37*
G36*
X1208306Y471057D02*
X1208057Y470881D01*
X1207829Y470699D01*
X1207624Y470512D01*
X1207439Y470320D01*
X1207277Y470122D01*
X1207136Y469918D01*
X1207017Y469709D01*
X1206919Y469495D01*
X1206843Y469275D01*
X1206789Y469049D01*
X1204461Y472545D01*
X1204690Y472508D01*
X1204923Y472494D01*
X1205158Y472501D01*
X1205397Y472530D01*
X1205639Y472582D01*
X1205884Y472655D01*
X1206133Y472751D01*
X1206385Y472869D01*
X1206640Y473009D01*
X1206898Y473171D01*
X1208306Y471057D01*
D02*
G37*
G36*
X1218336Y468238D02*
X1218087Y468062D01*
X1217859Y467881D01*
X1217654Y467694D01*
X1217469Y467501D01*
X1217307Y467303D01*
X1217166Y467100D01*
X1217047Y466891D01*
X1216949Y466676D01*
X1216873Y466456D01*
X1216819Y466231D01*
X1214491Y469726D01*
X1214720Y469689D01*
X1214952Y469674D01*
X1215188Y469682D01*
X1215427Y469711D01*
X1215669Y469763D01*
X1215914Y469836D01*
X1216163Y469932D01*
X1216415Y470050D01*
X1216670Y470190D01*
X1216928Y470352D01*
X1218336Y468238D01*
D02*
G37*
G36*
X1228367Y465419D02*
X1228118Y465243D01*
X1227890Y465062D01*
X1227684Y464874D01*
X1227500Y464682D01*
X1227338Y464484D01*
X1227197Y464280D01*
X1227078Y464071D01*
X1226980Y463857D01*
X1226905Y463637D01*
X1226850Y463411D01*
X1224521Y466906D01*
X1224751Y466869D01*
X1224983Y466855D01*
X1225218Y466862D01*
X1225457Y466892D01*
X1225699Y466943D01*
X1225945Y467017D01*
X1226193Y467113D01*
X1226445Y467230D01*
X1226700Y467371D01*
X1226958Y467533D01*
X1228367Y465419D01*
D02*
G37*
G36*
X1238397Y462600D02*
X1238148Y462424D01*
X1237921Y462243D01*
X1237715Y462056D01*
X1237531Y461863D01*
X1237368Y461665D01*
X1237227Y461461D01*
X1237108Y461252D01*
X1237011Y461038D01*
X1236935Y460818D01*
X1236881Y460592D01*
X1234551Y464087D01*
X1234781Y464050D01*
X1235013Y464035D01*
X1235248Y464043D01*
X1235487Y464072D01*
X1235729Y464124D01*
X1235975Y464198D01*
X1236223Y464294D01*
X1236475Y464412D01*
X1236730Y464552D01*
X1236989Y464714D01*
X1238397Y462600D01*
D02*
G37*
G36*
X1248428Y459781D02*
X1248178Y459605D01*
X1247951Y459424D01*
X1247745Y459237D01*
X1247561Y459044D01*
X1247399Y458846D01*
X1247258Y458643D01*
X1247139Y458433D01*
X1247041Y458219D01*
X1246966Y457999D01*
X1246911Y457773D01*
X1244582Y461268D01*
X1244811Y461231D01*
X1245043Y461216D01*
X1245279Y461223D01*
X1245517Y461253D01*
X1245760Y461305D01*
X1246005Y461379D01*
X1246253Y461474D01*
X1246505Y461592D01*
X1246760Y461732D01*
X1247019Y461895D01*
X1248428Y459781D01*
D02*
G37*
G36*
X1258458Y456963D02*
X1258209Y456786D01*
X1257981Y456605D01*
X1257776Y456418D01*
X1257591Y456225D01*
X1257429Y456027D01*
X1257288Y455824D01*
X1257169Y455614D01*
X1257072Y455400D01*
X1256996Y455180D01*
X1256942Y454954D01*
X1254612Y458448D01*
X1254841Y458411D01*
X1255073Y458397D01*
X1255309Y458404D01*
X1255547Y458434D01*
X1255790Y458486D01*
X1256035Y458559D01*
X1256283Y458655D01*
X1256535Y458773D01*
X1256790Y458913D01*
X1257048Y459076D01*
X1258458Y456963D01*
D02*
G37*
G36*
X1268488Y454144D02*
X1268239Y453968D01*
X1268012Y453786D01*
X1267806Y453599D01*
X1267622Y453406D01*
X1267459Y453208D01*
X1267319Y453005D01*
X1267200Y452795D01*
X1267102Y452581D01*
X1267027Y452361D01*
X1266973Y452135D01*
X1264642Y455629D01*
X1264871Y455592D01*
X1265103Y455578D01*
X1265339Y455585D01*
X1265578Y455615D01*
X1265820Y455666D01*
X1266065Y455740D01*
X1266313Y455836D01*
X1266565Y455954D01*
X1266820Y456094D01*
X1267078Y456257D01*
X1268488Y454144D01*
D02*
G37*
G36*
X1278518Y451325D02*
X1278269Y451149D01*
X1278042Y450967D01*
X1277836Y450780D01*
X1277652Y450587D01*
X1277490Y450389D01*
X1277349Y450186D01*
X1277230Y449976D01*
X1277133Y449762D01*
X1277057Y449542D01*
X1277003Y449316D01*
X1274672Y452810D01*
X1274901Y452773D01*
X1275133Y452758D01*
X1275369Y452766D01*
X1275608Y452795D01*
X1275850Y452847D01*
X1276095Y452921D01*
X1276344Y453017D01*
X1276595Y453135D01*
X1276850Y453275D01*
X1277109Y453438D01*
X1278518Y451325D01*
D02*
G37*
G36*
X1288549Y448506D02*
X1288300Y448330D01*
X1288072Y448148D01*
X1287867Y447961D01*
X1287683Y447768D01*
X1287520Y447570D01*
X1287380Y447367D01*
X1287261Y447157D01*
X1287163Y446943D01*
X1287088Y446723D01*
X1287034Y446497D01*
X1284702Y449990D01*
X1284931Y449954D01*
X1285163Y449939D01*
X1285399Y449947D01*
X1285638Y449976D01*
X1285880Y450028D01*
X1286125Y450102D01*
X1286374Y450198D01*
X1286625Y450316D01*
X1286880Y450456D01*
X1287139Y450619D01*
X1288549Y448506D01*
D02*
G37*
G36*
X1360603Y585264D02*
X1359220Y583881D01*
X1358000Y585586D01*
X1358898Y586484D01*
X1360603Y585264D01*
D02*
G37*
G36*
X1355916Y585586D02*
X1354696Y583881D01*
X1353313Y585264D01*
X1355018Y586484D01*
X1355916Y585586D01*
D02*
G37*
G36*
X1298579Y445687D02*
X1298330Y445511D01*
X1298103Y445329D01*
X1297897Y445142D01*
X1297713Y444949D01*
X1297551Y444751D01*
X1297410Y444548D01*
X1297291Y444338D01*
X1297194Y444124D01*
X1297118Y443904D01*
X1297064Y443678D01*
X1294732Y447171D01*
X1294961Y447134D01*
X1295193Y447120D01*
X1295429Y447127D01*
X1295668Y447157D01*
X1295910Y447209D01*
X1296155Y447283D01*
X1296404Y447379D01*
X1296655Y447497D01*
X1296910Y447637D01*
X1297168Y447800D01*
X1298579Y445687D01*
D02*
G37*
G36*
X1308609Y442868D02*
X1308360Y442692D01*
X1308133Y442510D01*
X1307927Y442323D01*
X1307743Y442131D01*
X1307581Y441932D01*
X1307440Y441729D01*
X1307321Y441520D01*
X1307224Y441305D01*
X1307149Y441085D01*
X1307095Y440859D01*
X1304762Y444352D01*
X1304991Y444315D01*
X1305224Y444301D01*
X1305459Y444308D01*
X1305698Y444338D01*
X1305940Y444390D01*
X1306185Y444464D01*
X1306434Y444560D01*
X1306685Y444678D01*
X1306940Y444818D01*
X1307198Y444981D01*
X1308609Y442868D01*
D02*
G37*
G36*
X1318639Y440050D02*
X1318391Y439873D01*
X1318163Y439692D01*
X1317958Y439504D01*
X1317774Y439312D01*
X1317611Y439113D01*
X1317471Y438910D01*
X1317352Y438700D01*
X1317255Y438486D01*
X1317179Y438266D01*
X1317125Y438040D01*
X1314792Y441532D01*
X1315021Y441496D01*
X1315254Y441481D01*
X1315489Y441489D01*
X1315728Y441519D01*
X1315970Y441571D01*
X1316215Y441645D01*
X1316464Y441741D01*
X1316715Y441859D01*
X1316970Y441999D01*
X1317229Y442162D01*
X1318639Y440050D01*
D02*
G37*
G36*
X1328670Y437230D02*
X1328421Y437054D01*
X1328194Y436872D01*
X1327988Y436685D01*
X1327805Y436492D01*
X1327642Y436294D01*
X1327502Y436090D01*
X1327383Y435881D01*
X1327286Y435666D01*
X1327210Y435446D01*
X1327156Y435220D01*
X1324823Y438713D01*
X1325052Y438676D01*
X1325284Y438661D01*
X1325520Y438669D01*
X1325759Y438699D01*
X1326001Y438751D01*
X1326246Y438825D01*
X1326494Y438921D01*
X1326746Y439039D01*
X1327001Y439180D01*
X1327259Y439342D01*
X1328670Y437230D01*
D02*
G37*
G36*
X1350734Y590404D02*
X1349515Y588703D01*
X1348135Y590083D01*
X1349836Y591302D01*
X1350734Y590404D01*
D02*
G37*
G36*
X1346234Y595905D02*
X1345015Y594204D01*
X1343635Y595583D01*
X1345336Y596802D01*
X1346234Y595905D01*
D02*
G37*
G36*
X1341166Y600836D02*
X1339947Y599136D01*
X1338567Y600515D01*
X1340268Y601735D01*
X1341166Y600836D01*
D02*
G37*
G36*
X1364080Y591302D02*
X1365781Y590083D01*
X1364401Y588703D01*
X1363182Y590404D01*
X1364080Y591302D01*
D02*
G37*
G36*
X1368580Y596802D02*
X1370281Y595583D01*
X1368901Y594204D01*
X1367682Y595905D01*
X1368580Y596802D01*
D02*
G37*
G36*
X1373648Y601735D02*
X1375349Y600515D01*
X1373969Y599136D01*
X1372750Y600836D01*
X1373648Y601735D01*
D02*
G37*
G36*
X1336166Y605836D02*
X1334947Y604135D01*
X1333567Y605515D01*
X1335268Y606734D01*
X1336166Y605836D01*
D02*
G37*
G36*
X1331166Y610836D02*
X1329947Y609136D01*
X1328567Y610515D01*
X1330268Y611735D01*
X1331166Y610836D01*
D02*
G37*
G36*
X1326416Y616086D02*
X1325197Y614386D01*
X1323817Y615765D01*
X1325518Y616984D01*
X1326416Y616086D01*
D02*
G37*
G36*
X1378648Y606734D02*
X1380349Y605515D01*
X1378969Y604135D01*
X1377750Y605836D01*
X1378648Y606734D01*
D02*
G37*
G36*
X1383648Y611735D02*
X1385349Y610515D01*
X1383969Y609136D01*
X1382750Y610836D01*
X1383648Y611735D01*
D02*
G37*
G36*
X1388398Y616984D02*
X1390099Y615765D01*
X1388719Y614386D01*
X1387500Y616086D01*
X1388398Y616984D01*
D02*
G37*
G36*
X1383721Y2751070D02*
X1379508Y2748928D01*
X1378610Y2749826D01*
X1380751Y2754040D01*
X1383721Y2751070D01*
D02*
G37*
G36*
X1334312Y2748850D02*
X1333231Y2748135D01*
X1328895Y2750550D01*
X1332396Y2752869D01*
X1334312Y2748850D01*
D02*
G37*
G36*
X1367593Y2726105D02*
X1366323D01*
X1364858Y2730599D01*
X1369058D01*
X1367593Y2726105D01*
D02*
G37*
G36*
X1347593D02*
X1346323D01*
X1344858Y2730599D01*
X1349058D01*
X1347593Y2726105D01*
D02*
G37*
G36*
X1395031Y620833D02*
X1393651Y619453D01*
X1392432Y621154D01*
X1393330Y622052D01*
X1395031Y620833D01*
D02*
G37*
G36*
X1321484Y621154D02*
X1320265Y619453D01*
X1318885Y620833D01*
X1320586Y622052D01*
X1321484Y621154D01*
D02*
G37*
G36*
X1314408Y2768928D02*
X1310195Y2771070D01*
X1313165Y2774040D01*
X1315306Y2769826D01*
X1314408Y2768928D01*
D02*
G37*
G36*
X1317489Y2791706D02*
X1320074Y2796006D01*
X1321945Y2792391D01*
X1318312Y2790732D01*
X1317489Y2791706D01*
D02*
G37*
G36*
X1353837Y2768499D02*
X1349552Y2770775D01*
X1352806Y2773429D01*
X1354827Y2769306D01*
X1353837Y2768499D01*
D02*
G37*
G36*
X1297806Y2811023D02*
X1300226Y2815360D01*
X1302534Y2811852D01*
X1298518Y2809939D01*
X1297806Y2811023D01*
D02*
G37*
G36*
X1315787Y2837911D02*
X1320281Y2839377D01*
Y2835176D01*
X1315787Y2836642D01*
Y2837911D01*
D02*
G37*
G36*
X1338610Y2809826D02*
X1340751Y2814040D01*
X1343721Y2811070D01*
X1339508Y2808928D01*
X1338610Y2809826D01*
D02*
G37*
G36*
X1359090Y2769306D02*
X1361110Y2773430D01*
X1364364Y2770775D01*
X1360079Y2768500D01*
X1359090Y2769306D01*
D02*
G37*
G36*
X1394408Y2788928D02*
X1390195Y2791070D01*
X1393165Y2794040D01*
X1395306Y2789826D01*
X1394408Y2788928D01*
D02*
G37*
G36*
X1398253Y2770293D02*
X1400504Y2774567D01*
X1403217Y2771360D01*
X1399076Y2769319D01*
X1398253Y2770293D01*
D02*
G37*
G36*
X1374369Y2808967D02*
X1370234Y2811090D01*
X1373144Y2814001D01*
X1375267Y2809865D01*
X1374369Y2808967D01*
D02*
G37*
G36*
X1398129Y2836642D02*
X1393636Y2835176D01*
Y2839377D01*
X1398129Y2837911D01*
Y2836642D01*
D02*
G37*
G36*
X1415398Y2809938D02*
X1411382Y2811851D01*
X1413691Y2815360D01*
X1416110Y2811022D01*
X1415398Y2809938D01*
D02*
G37*
D10*
X1351958Y582526D02*
X1353432Y584000D01*
X1351958Y530332D02*
Y582526D01*
X1243964Y458332D02*
X1351958Y530332D01*
X1253994Y455513D02*
X1361958Y527513D01*
X1233933Y461151D02*
X1341958Y533152D01*
X1223903Y463971D02*
X1331958Y535971D01*
X1213872Y466791D02*
X1320826Y538037D01*
X1203842Y469610D02*
X1311968Y541596D01*
X1193811Y472429D02*
X1301958Y544430D01*
X1183781Y475249D02*
X1291958Y547249D01*
X1173750Y478068D02*
X1281958Y550069D01*
X1301958Y544430D02*
Y582526D01*
X1291958Y547249D02*
Y582526D01*
X1281958Y550069D02*
Y582526D01*
X1324208Y435776D02*
X1431958Y507776D01*
X1314177Y438596D02*
X1421958Y510596D01*
X1304147Y441415D02*
X1411958Y513416D01*
X1294116Y444235D02*
X1401958Y516235D01*
X1284086Y447054D02*
X1391958Y519055D01*
X1274055Y449874D02*
X1381958Y521874D01*
X1264025Y452693D02*
X1371958Y524693D01*
X1320826Y538037D02*
X1321958Y539169D01*
X1431958Y507776D02*
Y582526D01*
X1421958Y510596D02*
Y582526D01*
X1411958Y513416D02*
Y582526D01*
X1401958Y516235D02*
Y582526D01*
X1391958Y519055D02*
Y582526D01*
X1381958Y521874D02*
Y582527D01*
X1371958Y524693D02*
Y582526D01*
X1361958Y527513D02*
Y582526D01*
X1341958Y533152D02*
Y582526D01*
X1331958Y535971D02*
Y582526D01*
X1321958Y539169D02*
Y582526D01*
X1311958Y541610D02*
Y582526D01*
X1360484Y584000D02*
X1361958Y582526D01*
X1365666Y588818D02*
X1371958Y582526D01*
X1341958D02*
X1348250Y588818D01*
X1331958Y582526D02*
X1343750Y594318D01*
X1370166Y594319D02*
X1381958Y582527D01*
X1321958Y582526D02*
X1338682Y599250D01*
X1311958Y582526D02*
X1333682Y604250D01*
X1301958Y582526D02*
X1328682Y609250D01*
X1291958Y582526D02*
X1323932Y614500D01*
X1281958Y582526D02*
X1319000Y619568D01*
X1375234Y599250D02*
X1391958Y582526D01*
X1380234Y604250D02*
X1401958Y582526D01*
X1385234Y609250D02*
X1411958Y582526D01*
X1389984Y614500D02*
X1421958Y582526D01*
X1394916Y619568D02*
X1431958Y582526D01*
D12*
X1353432Y584000D02*
X1355561Y586129D01*
X1346958Y2776277D02*
Y2777276D01*
Y2776277D02*
X1355593Y2767641D01*
X1355561Y2721173D02*
X1355593Y2721206D01*
X1355561Y586129D02*
Y2721173D01*
X1355593Y2721206D02*
Y2767641D01*
X1306958Y2735292D02*
Y2740276D01*
X1309228Y2736232D02*
Y2742007D01*
X1358322Y2721206D02*
Y2767641D01*
X1292533Y2754702D02*
X1306958Y2740276D01*
X1295194Y2756041D02*
X1309228Y2742007D01*
X1326958Y2755306D02*
X1335958Y2746306D01*
X1315593Y2733077D02*
Y2768642D01*
X1326958Y2755306D02*
Y2757276D01*
X1317863Y2734018D02*
Y2791181D01*
X1336003Y636571D02*
Y2706247D01*
X1352767Y2710468D02*
X1352767Y593335D01*
X1349973Y600541D02*
Y2708329D01*
X1347179Y607747D02*
Y2707912D01*
X1344385Y614953D02*
Y2707496D01*
X1341591Y622159D02*
Y2707079D01*
X1338797Y629365D02*
Y2706664D01*
X1366737Y2707623D02*
X1377958Y2718844D01*
X1361149Y593335D02*
X1361149Y2710468D01*
X1358355Y586129D02*
Y2721173D01*
X1363958Y2708055D02*
X1363958Y601526D01*
X1366737Y607747D02*
Y2707623D01*
X1369531Y614953D02*
Y2707207D01*
X1372325Y622159D02*
Y2706790D01*
X1375119Y629365D02*
Y2706375D01*
X1377913Y636571D02*
Y2705958D01*
X1388811Y2716857D01*
X1375119Y2706375D02*
X1386541Y2717797D01*
X1372325Y2706790D02*
X1384271Y2718737D01*
X1346958Y2716277D02*
X1352767Y2710468D01*
X1361149D02*
X1366958Y2716277D01*
X1335958Y2719133D02*
X1347179Y2707912D01*
X1338237Y2720064D02*
X1349973Y2708329D01*
X1315593Y2733077D02*
X1341591Y2707079D01*
X1317863Y2734018D02*
X1344385Y2707496D01*
X1306958Y2735292D02*
X1336003Y2706247D01*
X1358322Y2721206D02*
X1358355Y2721173D01*
X1309228Y2736232D02*
X1338797Y2706664D01*
X1346958Y2716277D02*
Y2737276D01*
X1366958Y2716277D02*
Y2737276D01*
X1335958Y2719133D02*
Y2746306D01*
X1369531Y2707207D02*
X1381944Y2719620D01*
X1363958Y2708055D02*
X1375678Y2719775D01*
X1388811Y2716857D02*
Y2716857D01*
X1386541Y2717797D02*
Y2717797D01*
X1384271Y2718737D02*
Y2718737D01*
X1381944Y2719620D02*
Y2719669D01*
X1384271Y2718737D02*
X1398323Y2732789D01*
X1388811Y2716857D02*
X1406958Y2735003D01*
X1381944Y2719669D02*
X1396053Y2733777D01*
X1386541Y2717797D02*
X1404688Y2735943D01*
X1377958Y2718844D02*
Y2748276D01*
X1406958Y2735003D02*
Y2740276D01*
X1404688Y2735943D02*
Y2742007D01*
X1406958Y2740276D02*
X1421383Y2754702D01*
X1404688Y2742007D02*
X1418722Y2756041D01*
X1398323Y2732789D02*
Y2769464D01*
X1377958Y2748276D02*
X1386958Y2757276D01*
X1396053Y2733777D02*
Y2788276D01*
X1375678Y2719775D02*
Y2808556D01*
X1375119Y629365D02*
X1389984Y614501D01*
X1377913Y636571D02*
X1394916Y619568D01*
X1323932Y614500D02*
Y614501D01*
X1328682Y609250D02*
X1341591Y622159D01*
X1323932Y614501D02*
X1338797Y629365D01*
X1319000Y619568D02*
X1336003Y636571D01*
X1338237Y2720064D02*
Y2808556D01*
X1358322Y2767641D02*
X1366958Y2776277D01*
X1306958Y2777276D02*
X1315593Y2768642D01*
X1398323Y2769464D02*
X1406135Y2777276D01*
X1366958Y2776277D02*
Y2777276D01*
X1406135D02*
X1406958D01*
X1295194Y2756041D02*
Y2807512D01*
X1418722Y2756041D02*
Y2807512D01*
X1395958Y2788276D02*
X1396053D01*
X1421383Y2754702D02*
Y2826851D01*
X1292533Y2754702D02*
Y2826851D01*
X1386958Y2797276D02*
X1395958Y2788276D01*
X1317863Y2791181D02*
X1323958Y2797276D01*
X1326958D01*
X1374818Y2809416D02*
X1375678Y2808556D01*
X1374818Y2809416D02*
Y2809417D01*
X1408958Y2817276D02*
X1418722Y2807512D01*
X1295194D02*
X1304958Y2817276D01*
X1338237Y2808556D02*
X1346958Y2817276D01*
X1366958D02*
X1374818Y2809417D01*
X1346958Y2817276D02*
X1346958D01*
X1304958D02*
X1306958D01*
X1406958D02*
X1408958D01*
X1292533Y2826851D02*
X1302958Y2837276D01*
X1410958D02*
X1421383Y2826851D01*
X1386958Y2837276D02*
X1410958D01*
X1302958D02*
X1326958D01*
X1358355Y586129D02*
X1360484Y584000D01*
X1348250Y588818D02*
X1352767Y593335D01*
Y593335D01*
X1343750Y594318D02*
Y594319D01*
X1349973Y600541D01*
X1338682Y599250D02*
Y599250D01*
X1347179Y607747D01*
X1328682Y609250D02*
Y609250D01*
X1333682Y604250D02*
X1344385Y614953D01*
X1361149Y593335D02*
X1365666Y588818D01*
X1363958Y600527D02*
X1370166Y594319D01*
X1363958Y600527D02*
Y601526D01*
X1366737Y607747D02*
X1375234Y599250D01*
X1369531Y614953D02*
X1380234Y604250D01*
X1372325Y622159D02*
X1385234Y609250D01*
D13*
X1306958Y2817276D02*
D03*
Y2777276D02*
D03*
Y2757276D02*
D03*
X1326958Y2737276D02*
D03*
Y2757276D02*
D03*
Y2777276D02*
D03*
Y2797276D02*
D03*
Y2817276D02*
D03*
X1326958Y2837276D02*
D03*
X1346958Y2737276D02*
D03*
Y2757276D02*
D03*
Y2777276D02*
D03*
Y2797276D02*
D03*
Y2817276D02*
D03*
Y2837276D02*
D03*
X1366958Y2737276D02*
D03*
Y2757276D02*
D03*
Y2777276D02*
D03*
Y2797276D02*
D03*
Y2817276D02*
D03*
Y2837276D02*
D03*
X1386958Y2737276D02*
D03*
Y2757276D02*
D03*
Y2777276D02*
D03*
Y2797276D02*
D03*
Y2817276D02*
D03*
Y2837276D02*
D03*
X1406958Y2777276D02*
D03*
Y2757276D02*
D03*
Y2817276D02*
D03*
Y2797276D02*
D03*
X1306958D02*
D03*
D14*
X1243964Y458332D02*
D03*
X1324208Y435776D02*
D03*
X1314177Y438596D02*
D03*
X1304147Y441415D02*
D03*
X1294116Y444235D02*
D03*
X1284086Y447054D02*
D03*
X1274055Y449874D02*
D03*
X1264025Y452693D02*
D03*
X1253994Y455513D02*
D03*
X1233933Y461151D02*
D03*
X1173750Y478068D02*
D03*
X1193811Y472429D02*
D03*
X1203842Y469610D02*
D03*
X1223903Y463971D02*
D03*
X1213872Y466791D02*
D03*
X1183781Y475249D02*
D03*
M02*
