G04*
G04 #@! TF.GenerationSoftware,Altium Limited,Altium Designer,26.1.1 (7)*
G04*
G04 Layer_Color=65535*
%FSLAX44Y44*%
%MOMM*%
G71*
G04*
G04 #@! TF.SameCoordinates,908419C8-71D5-4A82-9DBF-2F317C54D3F5*
G04*
G04*
G04 #@! TF.FilePolarity,Positive*
G04*
G01*
G75*
%ADD10C,0.2540*%
D10*
X1452733Y305886D02*
X1451041Y307578D01*
X1447655D01*
X1445962Y305886D01*
Y299114D01*
X1447655Y297422D01*
X1451041D01*
X1452733Y299114D01*
X1461197Y307578D02*
X1457812D01*
X1456119Y305886D01*
Y299114D01*
X1457812Y297422D01*
X1461197D01*
X1462890Y299114D01*
Y305886D01*
X1461197Y307578D01*
X1466276Y297422D02*
Y307578D01*
X1473047Y297422D01*
Y307578D01*
X1483203Y297422D02*
X1476432D01*
X1483203Y304193D01*
Y305886D01*
X1481511Y307578D01*
X1478125D01*
X1476432Y305886D01*
X1237563Y304766D02*
X1235870Y306458D01*
X1232485D01*
X1230792Y304766D01*
Y297994D01*
X1232485Y296302D01*
X1235870D01*
X1237563Y297994D01*
X1246027Y306458D02*
X1242642D01*
X1240949Y304766D01*
Y297994D01*
X1242642Y296302D01*
X1246027D01*
X1247720Y297994D01*
Y304766D01*
X1246027Y306458D01*
X1251105Y296302D02*
Y306458D01*
X1257877Y296302D01*
Y306458D01*
X1261262Y296302D02*
X1264648D01*
X1262955D01*
Y306458D01*
X1261262Y304766D01*
X1337706Y2720117D02*
Y2704883D01*
X1345324D01*
X1347863Y2707422D01*
Y2717578D01*
X1345324Y2720117D01*
X1337706D01*
X1352941D02*
X1358020D01*
X1355480D01*
Y2704883D01*
X1352941D01*
X1358020D01*
X1375794Y2717578D02*
X1373255Y2720117D01*
X1368176D01*
X1365637Y2717578D01*
Y2715039D01*
X1368176Y2712500D01*
X1373255D01*
X1375794Y2709961D01*
Y2707422D01*
X1373255Y2704883D01*
X1368176D01*
X1365637Y2707422D01*
M02*
