G04*
G04 #@! TF.GenerationSoftware,Altium Limited,Altium Designer,26.1.1 (7)*
G04*
G04 Layer_Color=2752767*
%FSLAX44Y44*%
%MOMM*%
G71*
G04*
G04 #@! TF.SameCoordinates,8B03DB5F-44E6-4546-888D-9AF5AB8BE463*
G04*
G04*
G04 #@! TF.FilePolarity,Positive*
G04*
G01*
G75*
%ADD12C,0.1270*%
D12*
X-54872Y2139696D02*
Y2149856D01*
X-44712D01*
Y2139696D01*
X-54872D01*
Y2099696D02*
Y2109856D01*
X-44712D01*
Y2099696D01*
X-54872D01*
Y2079696D02*
Y2089856D01*
X-44712D01*
Y2079696D01*
X-54872D01*
X-34872Y2059696D02*
Y2069856D01*
X-24712D01*
Y2059696D01*
X-34872D01*
Y2079696D02*
Y2089856D01*
X-24712D01*
Y2079696D01*
X-34872D01*
Y2099696D02*
Y2109856D01*
X-24712D01*
Y2099696D01*
X-34872D01*
Y2119696D02*
Y2129856D01*
X-24712D01*
Y2119696D01*
X-34872D01*
Y2139696D02*
Y2149856D01*
X-24712D01*
Y2139696D01*
X-34872D01*
X-34872Y2159696D02*
Y2169856D01*
X-24712D01*
Y2159696D01*
X-34872D01*
X-14872Y2059696D02*
Y2069856D01*
X-4712D01*
Y2059696D01*
X-14872D01*
Y2079696D02*
Y2089856D01*
X-4712D01*
Y2079696D01*
X-14872D01*
Y2099696D02*
Y2109856D01*
X-4712D01*
Y2099696D01*
X-14872D01*
Y2119696D02*
Y2129856D01*
X-4712D01*
Y2119696D01*
X-14872D01*
Y2139696D02*
Y2149856D01*
X-4712D01*
Y2139696D01*
X-14872D01*
Y2159696D02*
Y2169856D01*
X-4712D01*
Y2159696D01*
X-14872D01*
X5128Y2059696D02*
Y2069856D01*
X15288D01*
Y2059696D01*
X5128D01*
Y2079696D02*
Y2089856D01*
X15288D01*
Y2079696D01*
X5128D01*
Y2099696D02*
Y2109856D01*
X15288D01*
Y2099696D01*
X5128D01*
Y2119696D02*
Y2129856D01*
X15288D01*
Y2119696D01*
X5128D01*
Y2139696D02*
Y2149856D01*
X15288D01*
Y2139696D01*
X5128D01*
Y2159696D02*
Y2169856D01*
X15288D01*
Y2159696D01*
X5128D01*
X25128Y2059696D02*
Y2069856D01*
X35288D01*
Y2059696D01*
X25128D01*
Y2079696D02*
Y2089856D01*
X35288D01*
Y2079696D01*
X25128D01*
Y2099696D02*
Y2109856D01*
X35288D01*
Y2099696D01*
X25128D01*
Y2119696D02*
Y2129856D01*
X35288D01*
Y2119696D01*
X25128D01*
Y2139696D02*
Y2149856D01*
X35288D01*
Y2139696D01*
X25128D01*
Y2159696D02*
Y2169856D01*
X35288D01*
Y2159696D01*
X25128D01*
X45128Y2099696D02*
Y2109856D01*
X55288D01*
Y2099696D01*
X45128D01*
Y2079696D02*
Y2089856D01*
X55288D01*
Y2079696D01*
X45128D01*
Y2139696D02*
Y2149856D01*
X55288D01*
Y2139696D01*
X45128D01*
Y2119696D02*
Y2129856D01*
X55288D01*
Y2119696D01*
X45128D01*
X-54872D02*
Y2129856D01*
X-44712D01*
Y2119696D01*
X-54872D01*
X-168019Y-205151D02*
Y-194991D01*
X-157859D01*
Y-205151D01*
X-168019D01*
X-157988Y-207970D02*
Y-197810D01*
X-147828D01*
Y-207970D01*
X-157988D01*
X-37622Y-241804D02*
Y-231644D01*
X-27462D01*
Y-241804D01*
X-37622D01*
X-47653Y-238984D02*
Y-228824D01*
X-37493D01*
Y-238984D01*
X-47653D01*
X-57683Y-236164D02*
Y-226005D01*
X-47523D01*
Y-236164D01*
X-57683D01*
X-67714Y-233345D02*
Y-223185D01*
X-57554D01*
Y-233345D01*
X-67714D01*
X-77744Y-230526D02*
Y-220366D01*
X-67584D01*
Y-230526D01*
X-77744D01*
X-87775Y-227706D02*
Y-217546D01*
X-77615D01*
Y-227706D01*
X-87775D01*
X-97805Y-224887D02*
Y-214727D01*
X-87645D01*
Y-224887D01*
X-97805D01*
X-107836Y-222068D02*
Y-211908D01*
X-97676D01*
Y-222068D01*
X-107836D01*
X-117866Y-219248D02*
Y-209088D01*
X-107706D01*
Y-219248D01*
X-117866D01*
X-127896Y-216429D02*
Y-206269D01*
X-117737D01*
Y-216429D01*
X-127896D01*
X-137927Y-213609D02*
Y-203449D01*
X-127767D01*
Y-213609D01*
X-137927D01*
X-147958Y-210789D02*
Y-200629D01*
X-137798D01*
Y-210789D01*
X-147958D01*
X-178049Y-202331D02*
Y-192171D01*
X-167889D01*
Y-202331D01*
X-178049D01*
X-188080Y-199512D02*
Y-189352D01*
X-177920D01*
Y-199512D01*
X-188080D01*
M02*
