G04*
G04 #@! TF.GenerationSoftware,Altium Limited,Altium Designer,26.1.1 (7)*
G04*
G04 Layer_Color=8388736*
%FSLAX44Y44*%
%MOMM*%
G71*
G04*
G04 #@! TF.SameCoordinates,908419C8-71D5-4A82-9DBF-2F317C54D3F5*
G04*
G04*
G04 #@! TF.FilePolarity,Positive*
G04*
G01*
G75*
%ADD17C,0.1000*%
D17*
X1380166Y424862D02*
G03*
X1357166Y447862I-23000J0D01*
G01*
X1356750D02*
G03*
X1333750Y424862I0J-23000D01*
G01*
X1356750Y447862D02*
G03*
X1333750Y424862I0J-23000D01*
G01*
X1380166D02*
G03*
X1357166Y447862I-23000J0D01*
G01*
X1550167Y453856D02*
G03*
X1523284Y518760I-91787J0D01*
G01*
X1190633D02*
G03*
X1163749Y453856I64903J-64903D01*
G01*
X1190633Y518760D02*
G03*
X1163749Y453856I64903J-64903D01*
G01*
X1550167D02*
G03*
X1523284Y518760I-91787J0D01*
G01*
X1382467Y672276D02*
G03*
X1391447Y650596I30661J0D01*
G01*
X1322469D02*
G03*
X1331450Y672276I-21680J21680D01*
G01*
X1382467D02*
G03*
X1391447Y650596I30661J0D01*
G01*
X1322469D02*
G03*
X1331450Y672276I-21680J21680D01*
G01*
X1391447Y2715765D02*
G03*
X1382467Y2694085I21680J-21680D01*
G01*
X1391447Y2715765D02*
G03*
X1382467Y2694085I21680J-21680D01*
G01*
X1331450D02*
G03*
X1322469Y2715765I-30661J0D01*
G01*
X1331450Y2694085D02*
G03*
X1322469Y2715765I-30661J0D01*
G01*
X1285958Y2764977D02*
G03*
X1294939Y2743296I30661J0D01*
G01*
X1418978D02*
G03*
X1427958Y2764977I-21680J21680D01*
G01*
X1418978Y2743296D02*
G03*
X1427958Y2764977I-21680J21680D01*
G01*
X1285958D02*
G03*
X1294939Y2743296I30661J0D01*
G01*
X1427958Y2811937D02*
G03*
X1380619Y2859276I-47339J0D01*
G01*
X1333297D02*
G03*
X1285958Y2811937I0J-47339D01*
G01*
X1333297Y2859276D02*
G03*
X1285958Y2811937I0J-47339D01*
G01*
X1427958D02*
G03*
X1380619Y2859276I-47339J0D01*
G01*
X1163750Y278500D02*
X1333750D01*
X1379751D02*
X1550168D01*
X1379751D02*
X1380166Y338500D01*
X1550166D02*
X1550168Y278500D01*
X1333750D02*
X1333751Y338500D01*
X1163750Y278500D02*
X1163751Y338500D01*
X1333750Y338500D02*
Y424862D01*
Y338500D02*
Y424862D01*
X1380166Y338500D02*
Y424862D01*
Y338500D02*
Y424862D01*
X1550166Y338500D02*
X1550168Y453856D01*
X1550166Y338500D02*
X1550168Y453856D01*
X1163749D02*
X1163750Y338500D01*
X1163749Y453856D02*
X1163750Y338500D01*
X1410355Y631688D02*
X1523284Y518759D01*
X1190633D02*
X1303562Y631688D01*
X1190633Y518759D02*
X1303562Y631688D01*
X1410355D02*
X1523284Y518759D01*
X1303562Y631688D02*
X1322469Y650596D01*
X1303562Y631688D02*
X1322469Y650596D01*
X1391447D02*
X1410355Y631688D01*
X1391447Y650596D02*
X1410355Y631688D01*
X1331450Y707783D02*
X1331467Y707801D01*
X1331450Y707783D02*
X1331467Y707801D01*
X1331450Y672277D02*
Y2672277D01*
X1382467Y672277D02*
Y2672277D01*
Y672277D02*
Y2672277D01*
X1331450Y672277D02*
Y2672277D01*
X1382467D02*
Y2694085D01*
X1331450Y2672277D02*
Y2694085D01*
X1382467Y2672277D02*
Y2694085D01*
X1331450Y2672277D02*
Y2694085D01*
X1294939Y2743296D02*
X1322469Y2715765D01*
X1294939Y2743296D02*
X1322469Y2715765D01*
X1391447D02*
X1418978Y2743296D01*
X1391447Y2715765D02*
X1418978Y2743296D01*
X1285958Y2764977D02*
Y2811938D01*
X1427958Y2764977D02*
Y2811938D01*
X1285958Y2764977D02*
Y2811938D01*
X1427958Y2764977D02*
Y2811938D01*
X1333297Y2859276D02*
X1380619D01*
X1333297D02*
X1380619D01*
M02*
