G04*
G04 #@! TF.GenerationSoftware,Altium Limited,Altium Designer,26.1.1 (7)*
G04*
G04 Layer_Color=128*
%FSLAX44Y44*%
%MOMM*%
G71*
G04*
G04 #@! TF.SameCoordinates,908419C8-71D5-4A82-9DBF-2F317C54D3F5*
G04*
G04*
G04 #@! TF.FilePolarity,Positive*
G04*
G01*
G75*
%ADD12C,0.1270*%
D12*
X1305458Y2817276D02*
X1308458D01*
X1306958Y2815776D02*
Y2818777D01*
X1305458Y2777276D02*
X1308458D01*
X1306958Y2775776D02*
Y2778777D01*
X1305458Y2757276D02*
X1308458D01*
X1306958Y2755776D02*
Y2758777D01*
X1325458Y2737276D02*
X1328458D01*
X1326958Y2735776D02*
Y2738777D01*
X1325458Y2757276D02*
X1328458D01*
X1326958Y2755776D02*
Y2758777D01*
X1325458Y2777276D02*
X1328458D01*
X1326958Y2775776D02*
Y2778777D01*
X1325458Y2797276D02*
X1328458D01*
X1326958Y2795776D02*
Y2798777D01*
X1325458Y2817276D02*
X1328458D01*
X1326958Y2815776D02*
Y2818777D01*
X1325458Y2837276D02*
X1328458D01*
X1326958Y2835776D02*
Y2838777D01*
X1345458Y2737276D02*
X1348458D01*
X1346958Y2735776D02*
Y2738777D01*
X1345458Y2757276D02*
X1348458D01*
X1346958Y2755776D02*
Y2758777D01*
X1345458Y2777276D02*
X1348458D01*
X1346958Y2775776D02*
Y2778777D01*
X1345458Y2797276D02*
X1348458D01*
X1346958Y2795776D02*
Y2798777D01*
X1345458Y2817276D02*
X1348458D01*
X1346958Y2815776D02*
Y2818777D01*
X1345458Y2837276D02*
X1348458D01*
X1346958Y2835776D02*
Y2838777D01*
X1365458Y2737276D02*
X1368458D01*
X1366958Y2735776D02*
Y2738777D01*
X1365458Y2757276D02*
X1368458D01*
X1366958Y2755776D02*
Y2758777D01*
X1365458Y2777276D02*
X1368458D01*
X1366958Y2775776D02*
Y2778777D01*
X1365458Y2797276D02*
X1368458D01*
X1366958Y2795776D02*
Y2798777D01*
X1365458Y2817276D02*
X1368458D01*
X1366958Y2815776D02*
Y2818777D01*
X1365458Y2837276D02*
X1368458D01*
X1366958Y2835776D02*
Y2838777D01*
X1385458Y2737276D02*
X1388458D01*
X1386958Y2735776D02*
Y2738777D01*
X1385458Y2757276D02*
X1388458D01*
X1386958Y2755776D02*
Y2758777D01*
X1385458Y2777276D02*
X1388458D01*
X1386958Y2775776D02*
Y2778777D01*
X1385458Y2797276D02*
X1388458D01*
X1386958Y2795776D02*
Y2798777D01*
X1385458Y2817276D02*
X1388458D01*
X1386958Y2815776D02*
Y2818777D01*
X1385458Y2837276D02*
X1388458D01*
X1386958Y2835776D02*
Y2838777D01*
X1405458Y2777276D02*
X1408458D01*
X1406958Y2775776D02*
Y2778777D01*
X1405458Y2757276D02*
X1408458D01*
X1406958Y2755776D02*
Y2758777D01*
X1405458Y2817276D02*
X1408458D01*
X1406958Y2815776D02*
Y2818777D01*
X1405458Y2797276D02*
X1408458D01*
X1406958Y2795776D02*
Y2798777D01*
X1305458Y2797276D02*
X1308458D01*
X1306958Y2795776D02*
Y2798777D01*
X1242464Y458332D02*
X1245464D01*
X1243964Y456832D02*
Y459832D01*
X1322708Y435776D02*
X1325708D01*
X1324208Y434276D02*
Y437276D01*
X1312677Y438596D02*
X1315677D01*
X1314177Y437096D02*
Y440096D01*
X1302647Y441415D02*
X1305647D01*
X1304147Y439916D02*
Y442915D01*
X1292616Y444235D02*
X1295616D01*
X1294116Y442735D02*
Y445735D01*
X1282586Y447054D02*
X1285586D01*
X1284086Y445554D02*
Y448554D01*
X1272555Y449874D02*
X1275555D01*
X1274055Y448374D02*
Y451374D01*
X1262525Y452693D02*
X1265525D01*
X1264025Y451193D02*
Y454193D01*
X1252494Y455513D02*
X1255494D01*
X1253994Y454012D02*
Y457012D01*
X1232433Y461151D02*
X1235434D01*
X1233933Y459651D02*
Y462651D01*
X1172250Y478068D02*
X1175250D01*
X1173750Y476568D02*
Y479568D01*
X1192311Y472429D02*
X1195311D01*
X1193811Y470929D02*
Y473929D01*
X1202342Y469610D02*
X1205342D01*
X1203842Y468110D02*
Y471110D01*
X1222403Y463971D02*
X1225403D01*
X1223903Y462471D02*
Y465471D01*
X1212372Y466791D02*
X1215372D01*
X1213872Y465291D02*
Y468291D01*
X1182281Y475249D02*
X1185281D01*
X1183781Y473749D02*
Y476749D01*
M02*
