G04*
G04 #@! TF.GenerationSoftware,Altium Limited,Altium Designer,26.1.1 (7)*
G04*
G04 Layer_Color=255*
%FSLAX44Y44*%
%MOMM*%
G71*
G04*
G04 #@! TF.SameCoordinates,908419C8-71D5-4A82-9DBF-2F317C54D3F5*
G04*
G04*
G04 #@! TF.FilePolarity,Positive*
G04*
G01*
G75*
%ADD13C,1.4000*%
%ADD15R,0.7000X4.0000*%
D13*
X1306958Y2817276D02*
D03*
Y2777276D02*
D03*
Y2757276D02*
D03*
X1326958Y2737276D02*
D03*
Y2757276D02*
D03*
Y2777276D02*
D03*
Y2797276D02*
D03*
Y2817276D02*
D03*
X1326958Y2837276D02*
D03*
X1346958Y2737276D02*
D03*
Y2757276D02*
D03*
Y2777276D02*
D03*
Y2797276D02*
D03*
Y2817276D02*
D03*
Y2837276D02*
D03*
X1366958Y2737276D02*
D03*
Y2757276D02*
D03*
Y2777276D02*
D03*
Y2797276D02*
D03*
Y2817276D02*
D03*
Y2837276D02*
D03*
X1386958Y2737276D02*
D03*
Y2757276D02*
D03*
Y2777276D02*
D03*
Y2797276D02*
D03*
Y2817276D02*
D03*
Y2837276D02*
D03*
X1406958Y2777276D02*
D03*
Y2757276D02*
D03*
Y2817276D02*
D03*
Y2797276D02*
D03*
X1306958D02*
D03*
D15*
X1420663Y303620D02*
D03*
X1390663D02*
D03*
X1480663D02*
D03*
X1450663D02*
D03*
X1510663D02*
D03*
X1440663D02*
D03*
X1410663D02*
D03*
X1500663D02*
D03*
X1540663D02*
D03*
X1470663D02*
D03*
X1400663D02*
D03*
X1460663D02*
D03*
X1530663D02*
D03*
X1430663D02*
D03*
X1490663D02*
D03*
X1520663D02*
D03*
X1243750Y303500D02*
D03*
X1183750D02*
D03*
X1323750D02*
D03*
X1303750D02*
D03*
X1273750D02*
D03*
X1213750D02*
D03*
X1313750D02*
D03*
X1283750D02*
D03*
X1253750D02*
D03*
X1193750D02*
D03*
X1223750D02*
D03*
X1293750D02*
D03*
X1233750D02*
D03*
X1263750D02*
D03*
X1203750D02*
D03*
X1173750D02*
D03*
M02*
