G04*
G04 #@! TF.GenerationSoftware,Altium Limited,Altium Designer,26.1.1 (7)*
G04*
G04 Layer_Physical_Order=2*
G04 Layer_Color=16711680*
%FSLAX44Y44*%
%MOMM*%
G71*
G04*
G04 #@! TF.SameCoordinates,8B03DB5F-44E6-4546-888D-9AF5AB8BE463*
G04*
G04*
G04 #@! TF.FilePolarity,Positive*
G04*
G01*
G75*
%ADD10C,0.2540*%
%ADD12C,0.1270*%
%ADD13C,1.4000*%
%ADD14C,0.6000*%
%ADD15R,0.7000X4.0000*%
G36*
X9669Y2157797D02*
X9000Y2157802D01*
X8311Y2157714D01*
X7600Y2157534D01*
X6867Y2157262D01*
X6113Y2156898D01*
X5338Y2156441D01*
X4541Y2155892D01*
X3723Y2155251D01*
X2883Y2154518D01*
X2022Y2153692D01*
X1124Y2154590D01*
X1924Y2155430D01*
X2610Y2156237D01*
X3182Y2157012D01*
X3641Y2157753D01*
X3987Y2158463D01*
X4219Y2159139D01*
X4337Y2159783D01*
X4343Y2160394D01*
X4234Y2160973D01*
X4013Y2161519D01*
X9669Y2157797D01*
D02*
G37*
G36*
X-3818Y2160973D02*
X-3926Y2160394D01*
X-3921Y2159783D01*
X-3802Y2159139D01*
X-3570Y2158463D01*
X-3225Y2157753D01*
X-2765Y2157012D01*
X-2193Y2156237D01*
X-1507Y2155430D01*
X-708Y2154590D01*
X-1606Y2153692D01*
X-2467Y2154518D01*
X-4125Y2155892D01*
X-4922Y2156441D01*
X-5697Y2156898D01*
X-6451Y2157263D01*
X-7183Y2157535D01*
X-7894Y2157714D01*
X-8584Y2157802D01*
X-9252Y2157797D01*
X-3596Y2161519D01*
X-3818Y2160973D01*
D02*
G37*
G36*
X-31604Y2138015D02*
X-32255Y2138133D01*
X-32931Y2138146D01*
X-33631Y2138054D01*
X-34356Y2137855D01*
X-35106Y2137551D01*
X-35880Y2137142D01*
X-36679Y2136627D01*
X-37502Y2136006D01*
X-38350Y2135280D01*
X-39222Y2134448D01*
X-40120Y2135346D01*
X-39288Y2136219D01*
X-38562Y2137066D01*
X-37941Y2137890D01*
X-37426Y2138688D01*
X-37017Y2139462D01*
X-36713Y2140212D01*
X-36515Y2140937D01*
X-36422Y2141637D01*
X-36435Y2142313D01*
X-36553Y2142965D01*
X-31604Y2138015D01*
D02*
G37*
G36*
X36851Y2142313D02*
X36838Y2141637D01*
X36931Y2140937D01*
X37129Y2140212D01*
X37433Y2139462D01*
X37843Y2138688D01*
X38358Y2137890D01*
X38978Y2137066D01*
X39704Y2136219D01*
X40536Y2135346D01*
X39638Y2134448D01*
X38766Y2135280D01*
X37918Y2136006D01*
X37095Y2136627D01*
X36296Y2137142D01*
X35522Y2137551D01*
X34773Y2137855D01*
X34048Y2138054D01*
X33347Y2138146D01*
X32671Y2138133D01*
X32020Y2138015D01*
X36970Y2142965D01*
X36851Y2142313D01*
D02*
G37*
G36*
X-51604Y2118015D02*
X-52255Y2118133D01*
X-52931Y2118146D01*
X-53631Y2118054D01*
X-54356Y2117855D01*
X-55106Y2117551D01*
X-55880Y2117142D01*
X-56679Y2116627D01*
X-57502Y2116006D01*
X-58350Y2115280D01*
X-59222Y2114448D01*
X-60120Y2115346D01*
X-59288Y2116219D01*
X-58562Y2117066D01*
X-57941Y2117890D01*
X-57426Y2118688D01*
X-57017Y2119462D01*
X-56713Y2120212D01*
X-56515Y2120937D01*
X-56422Y2121637D01*
X-56435Y2122313D01*
X-56553Y2122965D01*
X-51604Y2118015D01*
D02*
G37*
G36*
X56851Y2122313D02*
X56838Y2121637D01*
X56931Y2120937D01*
X57129Y2120212D01*
X57433Y2119462D01*
X57843Y2118688D01*
X58358Y2117890D01*
X58978Y2117066D01*
X59704Y2116219D01*
X60536Y2115346D01*
X59638Y2114448D01*
X58766Y2115280D01*
X57918Y2116006D01*
X57095Y2116627D01*
X56296Y2117142D01*
X55522Y2117551D01*
X54773Y2117855D01*
X54048Y2118054D01*
X53347Y2118146D01*
X52671Y2118133D01*
X52020Y2118015D01*
X56970Y2122965D01*
X56851Y2122313D01*
D02*
G37*
G36*
X16241Y2121058D02*
X16136Y2120446D01*
X16148Y2119802D01*
X16278Y2119124D01*
X16525Y2118412D01*
X16890Y2117668D01*
X17373Y2116890D01*
X17973Y2116079D01*
X18691Y2115235D01*
X19526Y2114357D01*
X18442Y2113645D01*
X17581Y2114469D01*
X15912Y2115844D01*
X15103Y2116394D01*
X14312Y2116854D01*
X13539Y2117223D01*
X12782Y2117501D01*
X12043Y2117688D01*
X11321Y2117784D01*
X10617Y2117788D01*
X16464Y2121636D01*
X16241Y2121058D01*
D02*
G37*
G36*
X-10200Y2117788D02*
X-10905Y2117784D01*
X-11626Y2117688D01*
X-12365Y2117501D01*
X-13122Y2117223D01*
X-13896Y2116854D01*
X-14687Y2116394D01*
X-15496Y2115843D01*
X-16322Y2115202D01*
X-17165Y2114469D01*
X-18025Y2113645D01*
X-19110Y2114357D01*
X-18274Y2115234D01*
X-17556Y2116079D01*
X-16956Y2116890D01*
X-16473Y2117668D01*
X-16108Y2118412D01*
X-15861Y2119124D01*
X-15731Y2119801D01*
X-15719Y2120446D01*
X-15825Y2121058D01*
X-16048Y2121636D01*
X-10200Y2117788D01*
D02*
G37*
G36*
X-31417Y2097968D02*
X-31961Y2098048D01*
X-32532Y2098035D01*
X-33130Y2097930D01*
X-33755Y2097732D01*
X-34407Y2097442D01*
X-35086Y2097058D01*
X-35792Y2096582D01*
X-36525Y2096013D01*
X-37286Y2095352D01*
X-38073Y2094597D01*
X-38971Y2095495D01*
X-38233Y2096269D01*
X-37595Y2097011D01*
X-37059Y2097721D01*
X-36624Y2098400D01*
X-36290Y2099048D01*
X-36057Y2099664D01*
X-35925Y2100249D01*
X-35894Y2100803D01*
X-35964Y2101325D01*
X-36135Y2101816D01*
X-31417Y2097968D01*
D02*
G37*
G36*
X36380Y2101326D02*
X36310Y2100803D01*
X36341Y2100250D01*
X36473Y2099664D01*
X36706Y2099048D01*
X37040Y2098400D01*
X37476Y2097721D01*
X38012Y2097011D01*
X38649Y2096269D01*
X39388Y2095495D01*
X38489Y2094597D01*
X37702Y2095352D01*
X36209Y2096582D01*
X35503Y2097058D01*
X34824Y2097442D01*
X34172Y2097732D01*
X33547Y2097930D01*
X32948Y2098035D01*
X32377Y2098048D01*
X31833Y2097968D01*
X36552Y2101817D01*
X36380Y2101326D01*
D02*
G37*
G36*
X-12476Y2078312D02*
X-12899Y2078437D01*
X-13352Y2078474D01*
X-13835Y2078423D01*
X-14349Y2078283D01*
X-14894Y2078056D01*
X-15469Y2077740D01*
X-16074Y2077337D01*
X-16710Y2076845D01*
X-17376Y2076265D01*
X-18073Y2075597D01*
X-18971Y2076495D01*
X-18303Y2077192D01*
X-17231Y2078494D01*
X-16828Y2079100D01*
X-16512Y2079675D01*
X-16285Y2080219D01*
X-16146Y2080733D01*
X-16095Y2081216D01*
X-16132Y2081669D01*
X-16257Y2082092D01*
X-12476Y2078312D01*
D02*
G37*
G36*
X15692Y2080399D02*
X15708Y2080340D01*
X15750Y2080259D01*
X15817Y2080158D01*
X15911Y2080037D01*
X16174Y2079732D01*
X16763Y2079120D01*
X15865Y2078221D01*
X15640Y2078444D01*
X14826Y2079167D01*
X14725Y2079235D01*
X14645Y2079276D01*
X14585Y2079292D01*
X14546Y2079283D01*
X15702Y2080439D01*
X15692Y2080399D01*
D02*
G37*
G36*
X52354Y2078055D02*
X52037Y2077791D01*
X51757Y2077447D01*
X51515Y2077022D01*
X51309Y2076516D01*
X51142Y2075930D01*
X51011Y2075263D01*
X50918Y2074515D01*
X50862Y2073686D01*
X50843Y2072777D01*
X49573D01*
X49555Y2073686D01*
X49405Y2075263D01*
X49275Y2075930D01*
X49107Y2076516D01*
X48902Y2077022D01*
X48659Y2077447D01*
X48380Y2077791D01*
X48063Y2078055D01*
X47708Y2078238D01*
X52708D01*
X52354Y2078055D01*
D02*
G37*
G36*
X-47292Y2078238D02*
X-47646Y2078055D01*
X-47963Y2077791D01*
X-48243Y2077447D01*
X-48485Y2077022D01*
X-48691Y2076516D01*
X-48858Y2075930D01*
X-48989Y2075262D01*
X-49082Y2074514D01*
X-49138Y2073686D01*
X-49157Y2072776D01*
X-50427D01*
X-50445Y2073686D01*
X-50595Y2075262D01*
X-50725Y2075930D01*
X-50893Y2076516D01*
X-51098Y2077022D01*
X-51341Y2077447D01*
X-51620Y2077791D01*
X-51937Y2078055D01*
X-52292Y2078238D01*
X-47292Y2078238D01*
D02*
G37*
G36*
X30245Y2057776D02*
X30169Y2057756D01*
X30100Y2057696D01*
X30040Y2057596D01*
X29988Y2057455D01*
X29944Y2057275D01*
X29908Y2057056D01*
X29880Y2056796D01*
X29848Y2056156D01*
X29844Y2055776D01*
X28574D01*
X28570Y2056192D01*
X28479Y2057441D01*
X28437Y2057650D01*
X28388Y2057818D01*
X28331Y2057944D01*
X28266Y2058029D01*
X28194Y2058072D01*
X30245Y2057776D01*
D02*
G37*
G36*
X-27850Y2058029D02*
X-27914Y2057944D01*
X-27971Y2057818D01*
X-28020Y2057650D01*
X-28062Y2057442D01*
X-28096Y2057191D01*
X-28142Y2056566D01*
X-28157Y2055776D01*
X-29427D01*
X-29431Y2056156D01*
X-29491Y2057056D01*
X-29527Y2057275D01*
X-29571Y2057455D01*
X-29623Y2057596D01*
X-29684Y2057696D01*
X-29752Y2057756D01*
X-29828Y2057776D01*
X-27778Y2058073D01*
X-27850Y2058029D01*
D02*
G37*
G36*
X38998Y-52222D02*
X37206Y-54014D01*
X31551Y-47465D01*
X32449Y-46567D01*
X38998Y-52222D01*
D02*
G37*
G36*
X-31135Y-47465D02*
X-36790Y-54014D01*
X-38582Y-52222D01*
X-32033Y-46567D01*
X-31135Y-47465D01*
D02*
G37*
G36*
X34066Y-57290D02*
X32274Y-59081D01*
X26619Y-52533D01*
X27517Y-51635D01*
X34066Y-57290D01*
D02*
G37*
G36*
X-26203Y-52533D02*
X-31858Y-59081D01*
X-33650Y-57290D01*
X-27101Y-51635D01*
X-26203Y-52533D01*
D02*
G37*
G36*
X29316Y-62540D02*
X27524Y-64331D01*
X21869Y-57783D01*
X22767Y-56884D01*
X29316Y-62540D01*
D02*
G37*
G36*
X-21453Y-57783D02*
X-27108Y-64331D01*
X-28900Y-62540D01*
X-22351Y-56884D01*
X-21453Y-57783D01*
D02*
G37*
G36*
X24316Y-67540D02*
X22524Y-69331D01*
X16869Y-62783D01*
X17767Y-61885D01*
X24316Y-67540D01*
D02*
G37*
G36*
X-16453Y-62783D02*
X-22108Y-69331D01*
X-23900Y-67540D01*
X-17351Y-61885D01*
X-16453Y-62783D01*
D02*
G37*
G36*
X19316Y-72540D02*
X17524Y-74331D01*
X11869Y-67783D01*
X12767Y-66885D01*
X19316Y-72540D01*
D02*
G37*
G36*
X-11453Y-67783D02*
X-17108Y-74331D01*
X-18900Y-72540D01*
X-12351Y-66885D01*
X-11453Y-67783D01*
D02*
G37*
G36*
X14247Y-77471D02*
X12456Y-79262D01*
X6801Y-72715D01*
X7699Y-71817D01*
X14247Y-77471D01*
D02*
G37*
G36*
X-6385Y-72715D02*
X-12040Y-79262D01*
X-13831Y-77471D01*
X-7283Y-71817D01*
X-6385Y-72715D01*
D02*
G37*
G36*
X9721Y-82949D02*
X7933Y-84736D01*
X3950Y-79864D01*
X4848Y-78966D01*
X9721Y-82949D01*
D02*
G37*
G36*
X-3534Y-79864D02*
X-7517Y-84736D01*
X-9304Y-82949D01*
X-4432Y-78966D01*
X-3534Y-79864D01*
D02*
G37*
G36*
X3853Y-87486D02*
X2470Y-88869D01*
X1156Y-87070D01*
X2054Y-86172D01*
X3853Y-87486D01*
D02*
G37*
G36*
X-740Y-87070D02*
X-2054Y-88869D01*
X-3437Y-87486D01*
X-1638Y-86172D01*
X-740Y-87070D01*
D02*
G37*
G36*
X-180892Y-196626D02*
X-181068Y-196950D01*
X-181223Y-197324D01*
X-181357Y-197748D01*
X-181471Y-198222D01*
X-181564Y-198747D01*
X-181688Y-199948D01*
X-181719Y-200624D01*
X-181730Y-201350D01*
X-184270D01*
X-184280Y-200624D01*
X-184435Y-198747D01*
X-184528Y-198222D01*
X-184642Y-197748D01*
X-184777Y-197324D01*
X-184932Y-196950D01*
X-185108Y-196626D01*
X-185304Y-196353D01*
X-180695D01*
X-180892Y-196626D01*
D02*
G37*
G36*
X-170673Y-199182D02*
X-170874Y-199458D01*
X-171054Y-199784D01*
X-171212Y-200160D01*
X-171349Y-200585D01*
X-171466Y-201061D01*
X-171561Y-201586D01*
X-171688Y-202785D01*
X-171719Y-203459D01*
X-171730Y-204183D01*
X-174270Y-204155D01*
X-174280Y-203426D01*
X-174432Y-201547D01*
X-174523Y-201023D01*
X-174634Y-200549D01*
X-174766Y-200126D01*
X-174918Y-199754D01*
X-175089Y-199433D01*
X-175282Y-199162D01*
X-170673Y-199182D01*
D02*
G37*
G36*
X-160651Y-202011D02*
X-160856Y-202290D01*
X-161039Y-202618D01*
X-161201Y-202996D01*
X-161341Y-203423D01*
X-161460Y-203898D01*
X-161557Y-204424D01*
X-161687Y-205621D01*
X-161719Y-206294D01*
X-161730Y-207016D01*
X-164270Y-206959D01*
X-164280Y-206229D01*
X-164428Y-204347D01*
X-164517Y-203823D01*
X-164626Y-203350D01*
X-164755Y-202928D01*
X-164903Y-202558D01*
X-165071Y-202239D01*
X-165259Y-201972D01*
X-160651Y-202011D01*
D02*
G37*
G36*
X-150629Y-204840D02*
X-150838Y-205122D01*
X-151025Y-205452D01*
X-151190Y-205832D01*
X-151333Y-206259D01*
X-151455Y-206736D01*
X-151554Y-207261D01*
X-151631Y-207835D01*
X-151719Y-209129D01*
X-151730Y-209849D01*
X-154270Y-209763D01*
X-154279Y-209031D01*
X-154425Y-207146D01*
X-154512Y-206622D01*
X-154618Y-206150D01*
X-154744Y-205730D01*
X-154889Y-205362D01*
X-155053Y-205046D01*
X-155237Y-204781D01*
X-150629Y-204840D01*
D02*
G37*
G36*
X-140606Y-207669D02*
X-140820Y-207953D01*
X-141011Y-208286D01*
X-141179Y-208667D01*
X-141325Y-209096D01*
X-141449Y-209573D01*
X-141550Y-210098D01*
X-141629Y-210672D01*
X-141719Y-211963D01*
X-141730Y-212681D01*
X-144270Y-212567D01*
X-144279Y-211833D01*
X-144421Y-209945D01*
X-144506Y-209422D01*
X-144610Y-208950D01*
X-144733Y-208531D01*
X-144874Y-208165D01*
X-145035Y-207852D01*
X-145215Y-207591D01*
X-140606Y-207669D01*
D02*
G37*
G36*
X-130584Y-210499D02*
X-130802Y-210786D01*
X-130996Y-211121D01*
X-131168Y-211503D01*
X-131317Y-211933D01*
X-131443Y-212411D01*
X-131546Y-212936D01*
X-131627Y-213509D01*
X-131719Y-214798D01*
X-131730Y-215513D01*
X-134270Y-215370D01*
X-134279Y-214634D01*
X-134417Y-212744D01*
X-134500Y-212221D01*
X-134602Y-211750D01*
X-134722Y-211333D01*
X-134860Y-210969D01*
X-135017Y-210658D01*
X-135192Y-210401D01*
X-130584Y-210499D01*
D02*
G37*
G36*
X-120562Y-213328D02*
X-120784Y-213617D01*
X-120982Y-213954D01*
X-121158Y-214338D01*
X-121309Y-214769D01*
X-121438Y-215247D01*
X-121543Y-215773D01*
X-121625Y-216345D01*
X-121718Y-217631D01*
X-121730Y-218345D01*
X-124270Y-218173D01*
X-124279Y-217435D01*
X-124414Y-215542D01*
X-124495Y-215019D01*
X-124594Y-214550D01*
X-124711Y-214134D01*
X-124846Y-213772D01*
X-124998Y-213464D01*
X-125169Y-213210D01*
X-120562Y-213328D01*
D02*
G37*
G36*
X-110540Y-216156D02*
X-110766Y-216449D01*
X-110968Y-216787D01*
X-111147Y-217173D01*
X-111301Y-217605D01*
X-111432Y-218084D01*
X-111539Y-218609D01*
X-111623Y-219181D01*
X-111718Y-220464D01*
X-111730Y-221176D01*
X-114270Y-220975D01*
X-114279Y-220235D01*
X-114410Y-218340D01*
X-114489Y-217817D01*
X-114586Y-217349D01*
X-114700Y-216935D01*
X-114831Y-216575D01*
X-114980Y-216270D01*
X-115147Y-216019D01*
X-110540Y-216156D01*
D02*
G37*
G36*
X-100517Y-218985D02*
X-100748Y-219280D01*
X-100954Y-219621D01*
X-101136Y-220008D01*
X-101293Y-220441D01*
X-101427Y-220920D01*
X-101536Y-221445D01*
X-101621Y-222016D01*
X-101718Y-223297D01*
X-101730Y-224007D01*
X-104270Y-223777D01*
X-104278Y-223035D01*
X-104407Y-221138D01*
X-104484Y-220615D01*
X-104689Y-219736D01*
X-104817Y-219378D01*
X-104962Y-219076D01*
X-105124Y-218829D01*
X-100517Y-218985D01*
D02*
G37*
G36*
X-90495Y-221814D02*
X-90730Y-222111D01*
X-90940Y-222454D01*
X-91125Y-222842D01*
X-91285Y-223276D01*
X-91421Y-223755D01*
X-91532Y-224281D01*
X-91619Y-224851D01*
X-91718Y-226129D01*
X-91730Y-226837D01*
X-94270Y-226579D01*
X-94278Y-225834D01*
X-94403Y-223935D01*
X-94478Y-223413D01*
X-94677Y-222536D01*
X-94802Y-222181D01*
X-94944Y-221882D01*
X-95102Y-221638D01*
X-90495Y-221814D01*
D02*
G37*
G36*
X-80473Y-224643D02*
X-80712Y-224942D01*
X-80926Y-225287D01*
X-81114Y-225676D01*
X-81278Y-226111D01*
X-81416Y-226591D01*
X-81529Y-227116D01*
X-81617Y-227686D01*
X-81717Y-228962D01*
X-81730Y-229667D01*
X-84270Y-229379D01*
X-84278Y-228633D01*
X-84399Y-226731D01*
X-84472Y-226210D01*
X-84667Y-225336D01*
X-84788Y-224983D01*
X-84925Y-224687D01*
X-85079Y-224447D01*
X-80473Y-224643D01*
D02*
G37*
G36*
X-70451Y-227471D02*
X-70694Y-227773D01*
X-70912Y-228119D01*
X-71103Y-228510D01*
X-71270Y-228946D01*
X-71410Y-229426D01*
X-71525Y-229951D01*
X-71615Y-230520D01*
X-71717Y-231793D01*
X-71730Y-232496D01*
X-74270Y-232180D01*
X-74278Y-231431D01*
X-74467Y-229007D01*
X-74553Y-228543D01*
X-74655Y-228136D01*
X-74773Y-227785D01*
X-74907Y-227492D01*
X-75057Y-227256D01*
X-70451Y-227471D01*
D02*
G37*
G36*
X-60429Y-230300D02*
X-60676Y-230604D01*
X-60898Y-230952D01*
X-61093Y-231344D01*
X-61262Y-231780D01*
X-61405Y-232261D01*
X-61522Y-232786D01*
X-61613Y-233354D01*
X-61678Y-233967D01*
X-61730Y-235326D01*
X-64270Y-234980D01*
X-64278Y-234229D01*
X-64461Y-231803D01*
X-64545Y-231340D01*
X-64644Y-230935D01*
X-64759Y-230588D01*
X-64889Y-230297D01*
X-65034Y-230065D01*
X-60429Y-230300D01*
D02*
G37*
G36*
X-50407Y-233128D02*
X-50659Y-233435D01*
X-50883Y-233784D01*
X-51082Y-234178D01*
X-51254Y-234615D01*
X-51399Y-235096D01*
X-51518Y-235620D01*
X-51611Y-236188D01*
X-51677Y-236800D01*
X-51730Y-238155D01*
X-54270Y-237779D01*
X-54278Y-237026D01*
X-54455Y-234599D01*
X-54537Y-234137D01*
X-54633Y-233734D01*
X-54744Y-233389D01*
X-54871Y-233102D01*
X-55011Y-232874D01*
X-50407Y-233128D01*
D02*
G37*
G36*
X-40465Y-236098D02*
X-40641Y-236422D01*
X-40796Y-236796D01*
X-40931Y-237220D01*
X-41044Y-237694D01*
X-41137Y-238219D01*
X-41262Y-239420D01*
X-41293Y-240096D01*
X-41303Y-240822D01*
X-43843D01*
X-43853Y-240096D01*
X-44008Y-238219D01*
X-44101Y-237694D01*
X-44215Y-237220D01*
X-44350Y-236796D01*
X-44505Y-236422D01*
X-44681Y-236098D01*
X-44877Y-235825D01*
X-40269D01*
X-40465Y-236098D01*
D02*
G37*
G36*
X-30363Y-238786D02*
X-30623Y-239096D01*
X-30855Y-239449D01*
X-31060Y-239845D01*
X-31238Y-240283D01*
X-31388Y-240765D01*
X-31511Y-241289D01*
X-31607Y-241855D01*
X-31675Y-242465D01*
X-31730Y-243812D01*
X-34270Y-243376D01*
X-34277Y-242620D01*
X-34444Y-240189D01*
X-34520Y-239731D01*
X-34611Y-239332D01*
X-34715Y-238992D01*
X-34833Y-238712D01*
X-34966Y-238492D01*
X-30363Y-238786D01*
D02*
G37*
G36*
X187382Y-348910D02*
X180443D01*
X182643Y-341291D01*
X185183D01*
X187382Y-348910D01*
D02*
G37*
G36*
X177382D02*
X170443D01*
X172643Y-341291D01*
X175183D01*
X177382Y-348910D01*
D02*
G37*
G36*
X167382D02*
X160443D01*
X162643Y-341291D01*
X165183D01*
X167382Y-348910D01*
D02*
G37*
G36*
X157382D02*
X150443D01*
X152643Y-341291D01*
X155183D01*
X157382Y-348910D01*
D02*
G37*
G36*
X147382D02*
X140443D01*
X142643Y-341291D01*
X145183D01*
X147382Y-348910D01*
D02*
G37*
G36*
X137382D02*
X130443D01*
X132643Y-341291D01*
X135183D01*
X137382Y-348910D01*
D02*
G37*
G36*
X127382D02*
X120443D01*
X122643Y-341291D01*
X125183D01*
X127382Y-348910D01*
D02*
G37*
G36*
X117382D02*
X110443D01*
X112643Y-341291D01*
X115183D01*
X117382Y-348910D01*
D02*
G37*
G36*
X107382D02*
X100443D01*
X102643Y-341291D01*
X105183D01*
X107382Y-348910D01*
D02*
G37*
G36*
X97382D02*
X90443D01*
X92643Y-341291D01*
X95183D01*
X97382Y-348910D01*
D02*
G37*
G36*
X87383D02*
X80443D01*
X82643Y-341291D01*
X85183D01*
X87383Y-348910D01*
D02*
G37*
G36*
X77383D02*
X70444D01*
X72643Y-341291D01*
X75183D01*
X77383Y-348910D01*
D02*
G37*
G36*
X67383D02*
X60444D01*
X62643Y-341291D01*
X65183D01*
X67383Y-348910D01*
D02*
G37*
G36*
X57383D02*
X50444D01*
X52643Y-341291D01*
X55183D01*
X57383Y-348910D01*
D02*
G37*
G36*
X47383D02*
X40444D01*
X42215Y-341291D01*
X44755D01*
X47383Y-348910D01*
D02*
G37*
G36*
X37383D02*
X30444D01*
X32643Y-341291D01*
X35183D01*
X37383Y-348910D01*
D02*
G37*
G36*
X-29531Y-349030D02*
X-36470D01*
X-34270Y-341410D01*
X-31730D01*
X-29531Y-349030D01*
D02*
G37*
G36*
X-39531D02*
X-46470D01*
X-43843Y-341410D01*
X-41303D01*
X-39531Y-349030D01*
D02*
G37*
G36*
X-49531D02*
X-56470D01*
X-54270Y-341410D01*
X-51730D01*
X-49531Y-349030D01*
D02*
G37*
G36*
X-59531D02*
X-66470D01*
X-64270Y-341410D01*
X-61730D01*
X-59531Y-349030D01*
D02*
G37*
G36*
X-69531D02*
X-76469D01*
X-74270Y-341410D01*
X-71730D01*
X-69531Y-349030D01*
D02*
G37*
G36*
X-79531D02*
X-86469D01*
X-84270Y-341410D01*
X-81730D01*
X-79531Y-349030D01*
D02*
G37*
G36*
X-89530D02*
X-96469D01*
X-94270Y-341410D01*
X-91730D01*
X-89530Y-349030D01*
D02*
G37*
G36*
X-99530D02*
X-106469D01*
X-104270Y-341410D01*
X-101730D01*
X-99530Y-349030D01*
D02*
G37*
G36*
X-109530D02*
X-116469D01*
X-114270Y-341410D01*
X-111730D01*
X-109530Y-349030D01*
D02*
G37*
G36*
X-119530D02*
X-126469D01*
X-124270Y-341410D01*
X-121730D01*
X-119530Y-349030D01*
D02*
G37*
G36*
X-129530D02*
X-136469D01*
X-134270Y-341410D01*
X-131730D01*
X-129530Y-349030D01*
D02*
G37*
G36*
X-139530D02*
X-146469D01*
X-144270Y-341410D01*
X-141730D01*
X-139530Y-349030D01*
D02*
G37*
G36*
X-149530D02*
X-156469D01*
X-154270Y-341410D01*
X-151730D01*
X-149530Y-349030D01*
D02*
G37*
G36*
X-159530D02*
X-166469D01*
X-164270Y-341410D01*
X-161730D01*
X-159530Y-349030D01*
D02*
G37*
G36*
X-169530D02*
X-176469D01*
X-174270Y-341410D01*
X-171730D01*
X-169530Y-349030D01*
D02*
G37*
G36*
X-179530D02*
X-186469D01*
X-184270Y-341410D01*
X-181730D01*
X-179530Y-349030D01*
D02*
G37*
D10*
X25208Y-136779D02*
Y-90223D01*
X3734Y-88750D02*
X5208Y-90224D01*
X13416Y-78431D02*
X25208Y-90223D01*
X8916Y-83932D02*
X15208Y-90224D01*
X18484Y-73500D02*
X35208Y-90224D01*
X23484Y-68500D02*
X45208Y-90224D01*
X28484Y-63500D02*
X55208Y-90224D01*
X33234Y-58250D02*
X65208Y-90224D01*
X38166Y-53182D02*
X75208Y-90224D01*
X-14792D02*
X-8500Y-83932D01*
X-74792Y-90224D02*
X-37750Y-53182D01*
X-64792Y-90224D02*
X-32818Y-58250D01*
X-54792Y-90224D02*
X-28068Y-63500D01*
X-44792Y-90224D02*
X-23068Y-68500D01*
X-34792Y-90224D02*
X-18068Y-73500D01*
X-24792Y-90224D02*
X-13000Y-78432D01*
X-4792Y-90224D02*
X-3318Y-88750D01*
X-74792Y-164973D02*
Y-90224D01*
Y-164973D02*
X33913Y-237062D01*
Y-368880D02*
Y-237062D01*
X-73000Y-369000D02*
Y-225781D01*
X-93000Y-369000D02*
Y-220082D01*
X-83000Y-369000D02*
Y-222932D01*
X-43000Y-369000D02*
X-42573Y-368573D01*
X83913Y-368880D02*
Y-222812D01*
X-33000Y-369000D02*
Y-237182D01*
X-42573Y-368573D02*
Y-233904D01*
X43485Y-368453D02*
Y-233784D01*
X-53000Y-369000D02*
Y-231482D01*
X53913Y-368880D02*
Y-231361D01*
X-63000Y-369000D02*
Y-228631D01*
X63913Y-368880D02*
Y-228512D01*
X73913Y-368880D02*
Y-225662D01*
X-183000Y-369000D02*
Y-194431D01*
X-173000Y-369000D02*
Y-197282D01*
X-163000Y-369000D02*
Y-200132D01*
X-153000Y-369000D02*
Y-202982D01*
X-143000Y-369000D02*
Y-205832D01*
X-133000Y-369000D02*
Y-208682D01*
X-123000Y-369000D02*
Y-211532D01*
X-113000Y-369000D02*
Y-214382D01*
X93913Y-368880D02*
Y-219962D01*
X-103000Y-369000D02*
Y-217232D01*
X103913Y-368880D02*
Y-217111D01*
X113913Y-368880D02*
Y-214262D01*
X123913Y-368880D02*
Y-211412D01*
X133913Y-368880D02*
Y-208562D01*
X143913Y-368880D02*
Y-205712D01*
X153913Y-368880D02*
Y-202861D01*
X163913Y-368880D02*
Y-200012D01*
X173913Y-368880D02*
Y-197162D01*
X183913Y-368880D02*
Y-194311D01*
X-64792Y-162153D02*
X43485Y-233784D01*
X-54792Y-159334D02*
X53913Y-231361D01*
X-44792Y-156515D02*
X63913Y-228512D01*
X-34792Y-153695D02*
X73913Y-225662D01*
X-24792Y-150876D02*
X83913Y-222812D01*
X-14792Y-148057D02*
X93913Y-219962D01*
X-4792Y-145237D02*
X103913Y-217111D01*
X5208Y-142418D02*
X113913Y-214262D01*
X15208Y-139598D02*
X123913Y-211412D01*
X25208Y-136779D02*
X133913Y-208562D01*
X35208Y-133959D02*
X143913Y-205712D01*
X45208Y-131140D02*
X153913Y-202861D01*
X-44792Y-156515D02*
Y-90224D01*
X-64792Y-162153D02*
Y-90224D01*
X-54792Y-159334D02*
Y-90224D01*
X-34792Y-153695D02*
Y-90224D01*
X-24792Y-150876D02*
Y-90224D01*
X-14792Y-148057D02*
Y-90224D01*
X55208Y-128320D02*
X163913Y-200012D01*
X65208Y-125501D02*
X173913Y-197162D01*
X75208Y-122681D02*
X183913Y-194311D01*
X-4792Y-145237D02*
Y-90224D01*
X5208Y-142418D02*
Y-90224D01*
X15208Y-139598D02*
Y-90224D01*
X35208Y-133959D02*
Y-90223D01*
X45208Y-131140D02*
Y-90224D01*
X55208Y-128320D02*
Y-90224D01*
X65208Y-125501D02*
Y-90224D01*
X75208Y-122681D02*
Y-90224D01*
D12*
X7208Y-72223D02*
X13416Y-78431D01*
X1605Y-86621D02*
X3734Y-88750D01*
X-3318D02*
X-1189Y-86621D01*
X4399Y-79415D02*
X8916Y-83932D01*
X9987Y-65002D02*
X18484Y-73499D01*
X12781Y-57797D02*
X23484Y-68500D01*
X15575Y-50591D02*
X28484Y-63499D01*
X18369Y-43385D02*
X33234Y-58249D01*
X21163Y-36179D02*
X38166Y-53182D01*
X-28068Y-63499D02*
X-15159Y-50591D01*
X-23068Y-68500D02*
X-12365Y-57797D01*
X-18068Y-73499D02*
X-9571Y-65002D01*
X-13000Y-78431D02*
X-6777Y-72208D01*
X-8500Y-83932D02*
X-3983Y-79415D01*
X-37750Y-53182D02*
X-20747Y-36179D01*
X-32818Y-58249D02*
X-17953Y-43385D01*
X-62792Y2080776D02*
Y2111776D01*
X-49792Y2124776D02*
X-49792D01*
X-62792Y2111776D02*
X-49792Y2124776D01*
X-62792Y2080776D02*
X-45237Y2063222D01*
Y2058379D02*
Y2063222D01*
Y2058379D02*
X-20747Y2033888D01*
Y-36179D02*
Y2033888D01*
X-15159Y-50591D02*
Y2034721D01*
X-12365Y-57797D02*
Y2035137D01*
X-9571Y-65002D02*
Y2036555D01*
X-17953Y2031802D02*
X-17953Y-43385D01*
X-17953Y2031776D02*
Y2034305D01*
X7193Y2036776D02*
Y2036971D01*
X21209Y2050987D01*
X-20792D02*
X-6777Y2036971D01*
X-18522Y2052776D02*
X-3983Y2038237D01*
X4399D02*
X18939Y2052776D01*
X-28792Y2055776D02*
X-9571Y2036555D01*
X-42967Y2059319D02*
X-17953Y2034305D01*
X-40697Y2060259D02*
X-15159Y2034721D01*
X-38427Y2061200D02*
X-12365Y2035137D01*
X-28792Y2055776D02*
Y2056141D01*
Y2055776D02*
Y2063776D01*
X-1189Y2061167D02*
X-1157Y2061200D01*
X1573D02*
X1605Y2061167D01*
X-42967Y2059319D02*
Y2065952D01*
X-29792Y2064776D02*
X-28792Y2063776D01*
X-18522Y2052776D02*
Y2076046D01*
X16314Y2078671D02*
X16314D01*
X-38522Y2078170D02*
X-38427Y2078076D01*
X16314Y2078671D02*
X18939Y2076046D01*
X-40697Y2060259D02*
Y2077135D01*
X-49792Y2072776D02*
X-42967Y2065952D01*
X-38427Y2061200D02*
Y2078076D01*
X-40792Y2077230D02*
X-40697Y2077135D01*
X18369Y-43385D02*
X18369Y2031802D01*
X21163Y-36179D02*
Y2033888D01*
X18369Y2031776D02*
Y2034305D01*
X21163Y2033888D02*
X45654Y2058379D01*
X9987Y2036555D02*
X29209Y2055776D01*
X18369Y2034305D02*
X43384Y2059319D01*
X15575Y2034721D02*
X41114Y2060259D01*
X12781Y2035137D02*
X38844Y2061200D01*
X29209Y2055776D02*
Y2056141D01*
Y2055776D02*
Y2063777D01*
X45654Y2058379D02*
Y2063222D01*
X43384Y2059319D02*
Y2065952D01*
X29209Y2063777D02*
X30208Y2064776D01*
X18939Y2052776D02*
Y2076046D01*
X41114Y2060259D02*
Y2077135D01*
X43384Y2065952D02*
X50209Y2072776D01*
X38844Y2061200D02*
Y2078076D01*
X45654Y2063222D02*
X63209Y2080776D01*
X50208Y2072777D02*
X50209Y2072776D01*
X41114Y2077135D02*
X41209Y2077230D01*
X38844Y2078076D02*
X38939Y2078170D01*
X-6777Y-72208D02*
Y2036971D01*
X15575Y-50591D02*
Y2034721D01*
X-3983Y-79415D02*
Y2038237D01*
X4399Y-79415D02*
Y2038237D01*
X7193Y2036776D02*
X7193Y-72223D01*
X9987Y-65002D02*
Y2036555D01*
X-1189Y-86621D02*
Y2061167D01*
X1605Y-86621D02*
Y2061167D01*
X12781Y-57797D02*
Y2035137D01*
X-49792Y2072776D02*
Y2084776D01*
X50208Y2072777D02*
Y2084776D01*
X-18522Y2076046D02*
X-9792Y2084776D01*
X21209Y2050987D02*
Y2111776D01*
X-20792Y2050987D02*
Y2111776D01*
X10208Y2084776D02*
X16314Y2078671D01*
X-49792Y2084776D02*
X-49792Y2084776D01*
X-9792D02*
X-9792D01*
X-38522Y2078170D02*
Y2095046D01*
X10208Y2084776D02*
X10208D01*
X63209Y2080776D02*
Y2111776D01*
X38939Y2078170D02*
Y2095046D01*
X30208Y2103777D02*
X38939Y2095046D01*
X30208Y2103777D02*
Y2104776D01*
X41209Y2077230D02*
Y2133776D01*
X1573Y2061200D02*
Y2154141D01*
X63208Y2111776D02*
X63209D01*
X-20792D02*
X-9792Y2122776D01*
X10208Y2122777D02*
X21209Y2111776D01*
X50208Y2124776D02*
X63208Y2111776D01*
X-9792Y2122776D02*
Y2124776D01*
X10208Y2122777D02*
Y2124776D01*
X41208Y2133776D02*
X41209D01*
X30208Y2144776D02*
X41208Y2133776D01*
X-40792D02*
X-29792Y2144776D01*
X1573Y2154141D02*
X10208Y2162776D01*
X-9792Y2162776D02*
X-1157Y2154141D01*
X10208Y2162776D02*
Y2164776D01*
X-9792Y2162776D02*
Y2164776D01*
X-38522Y2095046D02*
X-29792Y2103777D01*
Y2104776D01*
X-40792Y2077230D02*
Y2133776D01*
X-1157Y2061200D02*
Y2154141D01*
D13*
X-49792Y2144776D02*
D03*
Y2104776D02*
D03*
Y2084776D02*
D03*
X-29792Y2064776D02*
D03*
Y2084776D02*
D03*
Y2104776D02*
D03*
Y2124776D02*
D03*
Y2144776D02*
D03*
X-29792Y2164776D02*
D03*
X-9792Y2064776D02*
D03*
Y2084776D02*
D03*
Y2104776D02*
D03*
Y2124776D02*
D03*
Y2144776D02*
D03*
Y2164776D02*
D03*
X10208Y2064776D02*
D03*
Y2084776D02*
D03*
Y2104776D02*
D03*
Y2124776D02*
D03*
Y2144776D02*
D03*
Y2164776D02*
D03*
X30208Y2064776D02*
D03*
Y2084776D02*
D03*
Y2104776D02*
D03*
Y2124776D02*
D03*
Y2144776D02*
D03*
Y2164776D02*
D03*
X50208Y2104776D02*
D03*
Y2084776D02*
D03*
Y2144776D02*
D03*
Y2124776D02*
D03*
X-49792D02*
D03*
D14*
X-162939Y-200071D02*
D03*
X-152908Y-202890D02*
D03*
X-32542Y-236724D02*
D03*
X-42573Y-233904D02*
D03*
X-52603Y-231084D02*
D03*
X-62634Y-228265D02*
D03*
X-72664Y-225446D02*
D03*
X-82695Y-222626D02*
D03*
X-92725Y-219807D02*
D03*
X-102756Y-216987D02*
D03*
X-112786Y-214168D02*
D03*
X-122816Y-211349D02*
D03*
X-132847Y-208529D02*
D03*
X-142878Y-205709D02*
D03*
X-172969Y-197251D02*
D03*
X-183000Y-194432D02*
D03*
D15*
X63913Y-368880D02*
D03*
X33913D02*
D03*
X123913D02*
D03*
X93913D02*
D03*
X153913D02*
D03*
X83913D02*
D03*
X53913D02*
D03*
X143913D02*
D03*
X183913D02*
D03*
X113913D02*
D03*
X43913D02*
D03*
X103913D02*
D03*
X173913D02*
D03*
X73913D02*
D03*
X133913D02*
D03*
X163913D02*
D03*
X-113000Y-369000D02*
D03*
X-173000D02*
D03*
X-33000D02*
D03*
X-53000D02*
D03*
X-83000D02*
D03*
X-143000D02*
D03*
X-43000D02*
D03*
X-73000D02*
D03*
X-103000D02*
D03*
X-163000D02*
D03*
X-133000D02*
D03*
X-63000D02*
D03*
X-123000D02*
D03*
X-93000D02*
D03*
X-153000D02*
D03*
X-183000D02*
D03*
M02*
