G04*
G04 #@! TF.GenerationSoftware,Altium Limited,Altium Designer,26.1.1 (7)*
G04*
G04 Layer_Color=16711935*
%FSLAX44Y44*%
%MOMM*%
G71*
G04*
G04 #@! TF.SameCoordinates,8B03DB5F-44E6-4546-888D-9AF5AB8BE463*
G04*
G04*
G04 #@! TF.FilePolarity,Negative*
G04*
G01*
G75*
%ADD11C,1.5500*%
%ADD15R,0.7000X4.0000*%
D11*
X-49792Y2144776D02*
D03*
Y2104776D02*
D03*
Y2084776D02*
D03*
X-29792Y2064776D02*
D03*
Y2084776D02*
D03*
Y2104776D02*
D03*
Y2124776D02*
D03*
Y2144776D02*
D03*
X-29792Y2164776D02*
D03*
X-9792Y2064776D02*
D03*
Y2084776D02*
D03*
Y2104776D02*
D03*
Y2124776D02*
D03*
Y2144776D02*
D03*
Y2164776D02*
D03*
X10208Y2064776D02*
D03*
Y2084776D02*
D03*
Y2104776D02*
D03*
Y2124776D02*
D03*
Y2144776D02*
D03*
Y2164776D02*
D03*
X30208Y2064776D02*
D03*
Y2084776D02*
D03*
Y2104776D02*
D03*
Y2124776D02*
D03*
Y2144776D02*
D03*
Y2164776D02*
D03*
X50208Y2104776D02*
D03*
Y2084776D02*
D03*
Y2144776D02*
D03*
Y2124776D02*
D03*
X-49792D02*
D03*
D15*
X63913Y-368880D02*
D03*
X33913D02*
D03*
X123913D02*
D03*
X93913D02*
D03*
X153913D02*
D03*
X83913D02*
D03*
X53913D02*
D03*
X143913D02*
D03*
X183913D02*
D03*
X113913D02*
D03*
X43913D02*
D03*
X103913D02*
D03*
X173913D02*
D03*
X73913D02*
D03*
X133913D02*
D03*
X163913D02*
D03*
X-113000Y-369000D02*
D03*
X-173000D02*
D03*
X-33000D02*
D03*
X-53000D02*
D03*
X-83000D02*
D03*
X-143000D02*
D03*
X-43000D02*
D03*
X-73000D02*
D03*
X-103000D02*
D03*
X-163000D02*
D03*
X-133000D02*
D03*
X-63000D02*
D03*
X-123000D02*
D03*
X-93000D02*
D03*
X-153000D02*
D03*
X-183000D02*
D03*
M02*
