G04*
G04 #@! TF.GenerationSoftware,Altium Limited,Altium Designer,26.1.1 (7)*
G04*
G04 Layer_Color=65535*
%FSLAX44Y44*%
%MOMM*%
G71*
G04*
G04 #@! TF.SameCoordinates,8B03DB5F-44E6-4546-888D-9AF5AB8BE463*
G04*
G04*
G04 #@! TF.FilePolarity,Positive*
G04*
G01*
G75*
%ADD10C,0.2540*%
D10*
X-19044Y2047617D02*
Y2032383D01*
X-11426D01*
X-8887Y2034922D01*
Y2045078D01*
X-11426Y2047617D01*
X-19044D01*
X-3809D02*
X1270D01*
X-1270D01*
Y2032383D01*
X-3809D01*
X1270D01*
X19044Y2045078D02*
X16505Y2047617D01*
X11426D01*
X8887Y2045078D01*
Y2042539D01*
X11426Y2040000D01*
X16505D01*
X19044Y2037461D01*
Y2034922D01*
X16505Y2032383D01*
X11426D01*
X8887Y2034922D01*
X95983Y-366614D02*
X94291Y-364922D01*
X90905D01*
X89212Y-366614D01*
Y-373386D01*
X90905Y-375078D01*
X94291D01*
X95983Y-373386D01*
X104447Y-364922D02*
X101062D01*
X99369Y-366614D01*
Y-373386D01*
X101062Y-375078D01*
X104447D01*
X106140Y-373386D01*
Y-366614D01*
X104447Y-364922D01*
X109526Y-375078D02*
Y-364922D01*
X116297Y-375078D01*
Y-364922D01*
X126454Y-375078D02*
X119682D01*
X126454Y-368307D01*
Y-366614D01*
X124761Y-364922D01*
X121375D01*
X119682Y-366614D01*
X-119187Y-367734D02*
X-120880Y-366042D01*
X-124265D01*
X-125958Y-367734D01*
Y-374506D01*
X-124265Y-376198D01*
X-120880D01*
X-119187Y-374506D01*
X-110723Y-366042D02*
X-114108D01*
X-115801Y-367734D01*
Y-374506D01*
X-114108Y-376198D01*
X-110723D01*
X-109030Y-374506D01*
Y-367734D01*
X-110723Y-366042D01*
X-105645Y-376198D02*
Y-366042D01*
X-98873Y-376198D01*
Y-366042D01*
X-95488Y-376198D02*
X-92102D01*
X-93795D01*
Y-366042D01*
X-95488Y-367734D01*
M02*
