G04*
G04 #@! TF.GenerationSoftware,Altium Limited,Altium Designer,26.1.1 (7)*
G04*
G04 Layer_Physical_Order=2*
G04 Layer_Color=16711680*
%FSLAX44Y44*%
%MOMM*%
G71*
G04*
G04 #@! TF.SameCoordinates,908419C8-71D5-4A82-9DBF-2F317C54D3F5*
G04*
G04*
G04 #@! TF.FilePolarity,Positive*
G04*
G01*
G75*
%ADD10C,0.2540*%
%ADD12C,0.1270*%
%ADD13C,1.4000*%
%ADD14C,0.6000*%
%ADD15R,0.7000X4.0000*%
%ADD16C,0.7000*%
D10*
X1243750Y458118D02*
X1243964Y458332D01*
X1243750Y348826D02*
Y458118D01*
X1500663Y348946D02*
Y466789D01*
X1430663Y348946D02*
Y446838D01*
X1540663Y348946D02*
Y478188D01*
X1460663Y348946D02*
Y455388D01*
X1520663Y348946D02*
Y472488D01*
X1390663Y348946D02*
Y435438D01*
X1440663Y348946D02*
Y449688D01*
X1410663Y348946D02*
Y441139D01*
X1480663Y348946D02*
Y461088D01*
X1450663Y348946D02*
Y452538D01*
X1470663Y348946D02*
Y458238D01*
X1530663Y348946D02*
Y475338D01*
X1510663Y348946D02*
Y469638D01*
X1490663Y348946D02*
Y463938D01*
X1420663Y348946D02*
Y443988D01*
X1400663Y348519D02*
Y438289D01*
X1313750Y438169D02*
X1314177Y438596D01*
X1313750Y348399D02*
Y438169D01*
X1263750Y452418D02*
X1264025Y452693D01*
X1293750Y348826D02*
Y443869D01*
X1223750Y348826D02*
Y463818D01*
X1293750Y443869D02*
X1294116Y444235D01*
X1203750Y348826D02*
Y469519D01*
X1183750Y348826D02*
Y475218D01*
X1233750Y460968D02*
X1233933Y461151D01*
X1263750Y348826D02*
Y452418D01*
X1303750Y441019D02*
X1304147Y441415D01*
X1273750Y449568D02*
X1274055Y449874D01*
X1233750Y348826D02*
Y460968D01*
X1323750Y435318D02*
X1324208Y435776D01*
X1303750Y348826D02*
Y441019D01*
X1273750Y348826D02*
Y449568D01*
X1323750Y348826D02*
Y435318D01*
X1253750Y455268D02*
X1253994Y455513D01*
X1193750Y348826D02*
Y472368D01*
X1283750Y446718D02*
X1284086Y447054D01*
X1253750Y348826D02*
Y455268D01*
X1173750Y348826D02*
Y478068D01*
X1283750Y348826D02*
Y446718D01*
X1213750Y348826D02*
Y466669D01*
X1361958Y530082D02*
Y582276D01*
Y530082D02*
X1470663Y458238D01*
X1360484Y583750D02*
X1361958Y582276D01*
X1401958Y541360D02*
Y582276D01*
X1411958Y544180D02*
Y582276D01*
X1421958Y546999D02*
Y582276D01*
X1431958Y549819D02*
Y582276D01*
X1365666Y588568D02*
X1371958Y582276D01*
X1370166Y594069D02*
X1381958Y582277D01*
X1375234Y599000D02*
X1391958Y582276D01*
X1380234Y604000D02*
X1401958Y582276D01*
X1385234Y609000D02*
X1411958Y582276D01*
X1389984Y614250D02*
X1421958Y582276D01*
X1394916Y619318D02*
X1431958Y582276D01*
X1341958D02*
X1348250Y588568D01*
X1331958Y582276D02*
X1343750Y594068D01*
X1321958Y582276D02*
X1338682Y599000D01*
X1311958Y582276D02*
X1333682Y604000D01*
X1301958Y582276D02*
X1328682Y609000D01*
X1291958Y582276D02*
X1323932Y614250D01*
X1281958Y582276D02*
X1319000Y619318D01*
X1281958Y507527D02*
X1390663Y435438D01*
X1291958Y510346D02*
X1400235Y438716D01*
X1301958Y513166D02*
X1410663Y441139D01*
X1281958Y507527D02*
Y582276D01*
X1291958Y510346D02*
Y582276D01*
X1301958Y513166D02*
Y582276D01*
X1311958Y515985D02*
Y582276D01*
X1321958Y518805D02*
Y582276D01*
X1331958Y521624D02*
Y582276D01*
X1341958Y524443D02*
Y582276D01*
X1351958Y527263D02*
Y582276D01*
X1353432Y583750D01*
X1311958Y515985D02*
X1420663Y443988D01*
X1321958Y518805D02*
X1430663Y446838D01*
X1331958Y521624D02*
X1440663Y449688D01*
X1341958Y524443D02*
X1450663Y452538D01*
X1351958Y527263D02*
X1460663Y455388D01*
X1371958Y532902D02*
X1480663Y461088D01*
X1381958Y535721D02*
X1490663Y463938D01*
X1391958Y538541D02*
X1500663Y466788D01*
X1401958Y541360D02*
X1510663Y469638D01*
X1411958Y544180D02*
X1520663Y472488D01*
X1421958Y546999D02*
X1530663Y475338D01*
X1431958Y549819D02*
X1540663Y478189D01*
X1371958Y532902D02*
Y582276D01*
X1381958Y535721D02*
Y582277D01*
X1391958Y538541D02*
Y582277D01*
D12*
X1366958Y2835276D02*
Y2837276D01*
X1358323Y2826641D02*
X1366958Y2835276D01*
X1358323Y2733700D02*
Y2826641D01*
X1358355Y585880D02*
Y2733668D01*
X1358323Y2733700D02*
X1358355Y2733668D01*
Y585879D02*
X1360484Y583750D01*
X1361149Y593085D02*
X1365666Y588568D01*
X1363958Y600276D02*
X1370166Y594069D01*
X1353432Y583750D02*
X1355561Y585879D01*
X1348250Y588568D02*
X1352767Y593085D01*
X1343750Y594069D02*
X1349973Y600291D01*
X1338682Y599001D02*
X1347179Y607497D01*
X1333682Y604000D02*
X1344385Y614703D01*
X1328682Y609001D02*
X1341591Y621909D01*
X1323932Y614250D02*
X1338797Y629115D01*
X1319000Y619318D02*
X1336003Y636321D01*
X1344385Y614703D02*
Y2707637D01*
X1352767Y593086D02*
Y2710737D01*
X1349973Y600291D02*
Y2709471D01*
X1347179Y607497D02*
Y2709055D01*
X1355561Y585880D02*
Y2733668D01*
X1355593Y2733700D01*
X1341591Y621909D02*
Y2707221D01*
X1338797Y2704301D02*
X1338797Y629115D01*
X1336003Y636321D02*
Y2706388D01*
X1338797Y2704276D02*
Y2706805D01*
X1335958Y2723487D02*
X1349973Y2709471D01*
X1338228Y2725276D02*
X1352767Y2710737D01*
X1366737Y607497D02*
X1375234Y599001D01*
X1369531Y614703D02*
X1380234Y604000D01*
X1372325Y621909D02*
X1385234Y609001D01*
X1375119Y629115D02*
X1389984Y614250D01*
X1377913Y636321D02*
X1394916Y619318D01*
X1361149Y593086D02*
Y2710737D01*
X1363943Y2709276D02*
X1363943Y600276D01*
X1366737Y607497D02*
Y2709055D01*
X1369531Y614703D02*
Y2707637D01*
X1372325Y621909D02*
Y2707221D01*
X1375119Y629115D02*
X1375119Y2704301D01*
X1402404Y2730879D02*
Y2735722D01*
X1377913Y2706388D02*
X1402404Y2730879D01*
X1366737Y2709055D02*
X1385959Y2728276D01*
X1375119Y2706805D02*
X1400134Y2731819D01*
X1372325Y2707221D02*
X1397864Y2732759D01*
X1369531Y2707637D02*
X1395594Y2733700D01*
X1385959Y2728276D02*
Y2728641D01*
Y2728276D02*
Y2736277D01*
X1400134Y2731819D02*
Y2738452D01*
X1311513Y2730879D02*
Y2735722D01*
Y2730879D02*
X1336003Y2706388D01*
X1327958Y2728276D02*
X1347179Y2709055D01*
X1313783Y2731819D02*
X1338797Y2706805D01*
X1316053Y2732759D02*
X1341591Y2707221D01*
X1318323Y2733700D02*
X1344385Y2707637D01*
X1327958Y2728276D02*
Y2728641D01*
Y2728276D02*
Y2736277D01*
X1377913Y636321D02*
Y2706388D01*
X1375119Y2704276D02*
Y2706805D01*
X1363943Y2709276D02*
Y2709471D01*
X1377959Y2723487D01*
X1361149Y2710737D02*
X1375689Y2725276D01*
X1313783Y2731819D02*
Y2738452D01*
X1326958Y2737276D02*
X1327958Y2736277D01*
X1385959Y2736277D02*
X1386958Y2737276D01*
X1375689Y2725276D02*
Y2748546D01*
X1338228Y2725276D02*
Y2748546D01*
X1316053Y2732759D02*
Y2749635D01*
X1397864Y2732759D02*
Y2749635D01*
X1306958Y2745276D02*
X1313783Y2738452D01*
X1400134D02*
X1406959Y2745276D01*
X1318323Y2733700D02*
Y2750576D01*
X1395594Y2733700D02*
Y2750576D01*
X1402404Y2735722D02*
X1419959Y2753276D01*
X1293958D02*
Y2784276D01*
Y2753276D02*
X1311513Y2735722D01*
X1306958Y2745276D02*
Y2757276D01*
X1306958Y2757276D01*
X1315958Y2749730D02*
X1316053Y2749635D01*
X1318228Y2750670D02*
Y2767546D01*
Y2750670D02*
X1318323Y2750576D01*
X1335958Y2723487D02*
Y2784276D01*
X1338228Y2748546D02*
X1346958Y2757276D01*
X1346958D01*
X1366958D02*
X1366958D01*
X1373064Y2751170D01*
X1373064D01*
X1375689Y2748546D01*
X1377959Y2723487D02*
Y2784276D01*
X1395594Y2750576D02*
X1395689Y2750670D01*
Y2767546D01*
X1397864Y2749635D02*
X1397959Y2749730D01*
X1406958Y2745277D02*
Y2757276D01*
Y2745277D02*
X1406959Y2745276D01*
X1419959Y2753276D02*
Y2784276D01*
X1293958D02*
X1306958Y2797276D01*
X1315958Y2749730D02*
Y2806277D01*
X1318228Y2767546D02*
X1326958Y2776277D01*
Y2777276D01*
X1335958Y2784276D02*
X1346958Y2795276D01*
Y2797276D01*
X1355593Y2733700D02*
Y2826641D01*
X1366958Y2795277D02*
Y2797276D01*
Y2795277D02*
X1377959Y2784276D01*
X1386958Y2776277D02*
Y2777276D01*
Y2776277D02*
X1395689Y2767546D01*
X1397959Y2749730D02*
Y2806277D01*
X1406958Y2797276D02*
X1419958Y2784276D01*
X1419959D01*
X1306958Y2797276D02*
X1306958D01*
X1315958Y2806277D02*
X1326958Y2817276D01*
X1346958Y2835276D02*
Y2837276D01*
Y2835276D02*
X1355593Y2826641D01*
X1386958Y2817276D02*
X1397958Y2806277D01*
X1397959D01*
D13*
X1306958Y2817276D02*
D03*
Y2777276D02*
D03*
Y2757276D02*
D03*
X1326958Y2737276D02*
D03*
Y2757276D02*
D03*
Y2777276D02*
D03*
Y2797276D02*
D03*
Y2817276D02*
D03*
X1326958Y2837276D02*
D03*
X1346958Y2737276D02*
D03*
Y2757276D02*
D03*
Y2777276D02*
D03*
Y2797276D02*
D03*
Y2817276D02*
D03*
Y2837276D02*
D03*
X1366958Y2737276D02*
D03*
Y2757276D02*
D03*
Y2777276D02*
D03*
Y2797276D02*
D03*
Y2817276D02*
D03*
Y2837276D02*
D03*
X1386958Y2737276D02*
D03*
Y2757276D02*
D03*
Y2777276D02*
D03*
Y2797276D02*
D03*
Y2817276D02*
D03*
Y2837276D02*
D03*
X1406958Y2777276D02*
D03*
Y2757276D02*
D03*
Y2817276D02*
D03*
Y2797276D02*
D03*
X1306958D02*
D03*
D14*
X1243964Y458332D02*
D03*
X1324208Y435776D02*
D03*
X1314177Y438596D02*
D03*
X1304147Y441415D02*
D03*
X1294116Y444235D02*
D03*
X1284086Y447054D02*
D03*
X1274055Y449874D02*
D03*
X1264025Y452693D02*
D03*
X1253994Y455513D02*
D03*
X1233933Y461151D02*
D03*
X1173750Y478068D02*
D03*
X1193811Y472429D02*
D03*
X1203842Y469610D02*
D03*
X1223903Y463971D02*
D03*
X1213872Y466791D02*
D03*
X1183781Y475249D02*
D03*
D15*
X1420663Y303620D02*
D03*
X1390663D02*
D03*
X1480663D02*
D03*
X1450663D02*
D03*
X1510663D02*
D03*
X1440663D02*
D03*
X1410663D02*
D03*
X1500663D02*
D03*
X1540663D02*
D03*
X1470663D02*
D03*
X1400663D02*
D03*
X1460663D02*
D03*
X1530663D02*
D03*
X1430663D02*
D03*
X1490663D02*
D03*
X1520663D02*
D03*
X1243750Y303500D02*
D03*
X1183750D02*
D03*
X1323750D02*
D03*
X1303750D02*
D03*
X1273750D02*
D03*
X1213750D02*
D03*
X1313750D02*
D03*
X1283750D02*
D03*
X1253750D02*
D03*
X1193750D02*
D03*
X1223750D02*
D03*
X1293750D02*
D03*
X1233750D02*
D03*
X1263750D02*
D03*
X1203750D02*
D03*
X1173750D02*
D03*
D16*
X1243750D02*
Y348826D01*
X1540663Y303620D02*
Y348946D01*
X1530663Y303620D02*
Y348946D01*
X1520663Y303620D02*
Y348946D01*
X1510663Y303620D02*
Y348946D01*
X1500663Y303620D02*
Y348946D01*
X1490663Y303620D02*
Y348946D01*
X1480663Y303620D02*
Y348946D01*
X1470663Y303620D02*
Y348946D01*
X1460663Y303620D02*
Y348946D01*
X1450663Y303620D02*
Y348946D01*
X1440663Y303620D02*
Y348946D01*
X1430663Y303620D02*
Y348946D01*
X1420663Y303620D02*
Y348946D01*
X1410663Y303620D02*
Y348946D01*
X1400663Y303620D02*
Y348519D01*
X1390663Y303620D02*
Y348946D01*
X1323750Y303500D02*
Y348826D01*
X1313750Y303500D02*
Y348399D01*
X1303750Y303500D02*
Y348826D01*
X1293750Y303500D02*
Y348826D01*
X1283750Y303500D02*
Y348826D01*
X1273750Y303500D02*
Y348826D01*
X1263750Y303500D02*
Y348826D01*
X1253750Y303500D02*
Y348826D01*
X1233750Y303500D02*
Y348826D01*
X1223750Y303500D02*
Y348826D01*
X1213750Y303500D02*
Y348826D01*
X1203750Y303500D02*
Y348826D01*
X1193750Y303500D02*
Y348826D01*
X1183750Y303500D02*
Y348826D01*
X1173750Y303500D02*
Y348826D01*
M02*
