G04*
G04 #@! TF.GenerationSoftware,Altium Limited,Altium Designer,26.1.1 (7)*
G04*
G04 Layer_Physical_Order=1*
G04 Layer_Color=255*
%FSLAX44Y44*%
%MOMM*%
G71*
G04*
G04 #@! TF.SameCoordinates,908419C8-71D5-4A82-9DBF-2F317C54D3F5*
G04*
G04*
G04 #@! TF.FilePolarity,Positive*
G04*
G01*
G75*
%ADD10C,0.2540*%
%ADD12C,0.1270*%
%ADD13C,1.4000*%
%ADD14C,0.6000*%
D10*
X1351958Y582526D02*
X1353432Y584000D01*
X1351958Y530332D02*
Y582526D01*
X1243964Y458332D02*
X1351958Y530332D01*
X1253994Y455513D02*
X1361958Y527513D01*
X1233933Y461151D02*
X1341958Y533152D01*
X1223903Y463971D02*
X1331958Y535971D01*
X1213872Y466791D02*
X1320826Y538037D01*
X1203842Y469610D02*
X1311968Y541596D01*
X1193811Y472429D02*
X1301958Y544430D01*
X1183781Y475249D02*
X1291958Y547249D01*
X1173750Y478068D02*
X1281958Y550069D01*
X1301958Y544430D02*
Y582526D01*
X1291958Y547249D02*
Y582526D01*
X1281958Y550069D02*
Y582526D01*
X1324208Y435776D02*
X1431958Y507776D01*
X1314177Y438596D02*
X1421958Y510596D01*
X1304147Y441415D02*
X1411958Y513416D01*
X1294116Y444235D02*
X1401958Y516235D01*
X1284086Y447054D02*
X1391958Y519055D01*
X1274055Y449874D02*
X1381958Y521874D01*
X1264025Y452693D02*
X1371958Y524693D01*
X1320826Y538037D02*
X1321958Y539169D01*
X1431958Y507776D02*
Y582526D01*
X1421958Y510596D02*
Y582526D01*
X1411958Y513416D02*
Y582526D01*
X1401958Y516235D02*
Y582526D01*
X1391958Y519055D02*
Y582526D01*
X1381958Y521874D02*
Y582527D01*
X1371958Y524693D02*
Y582526D01*
X1361958Y527513D02*
Y582526D01*
X1341958Y533152D02*
Y582526D01*
X1331958Y535971D02*
Y582526D01*
X1321958Y539169D02*
Y582526D01*
X1311958Y541610D02*
Y582526D01*
X1360484Y584000D02*
X1361958Y582526D01*
X1365666Y588818D02*
X1371958Y582526D01*
X1341958D02*
X1348250Y588818D01*
X1331958Y582526D02*
X1343750Y594318D01*
X1370166Y594319D02*
X1381958Y582527D01*
X1321958Y582526D02*
X1338682Y599250D01*
X1311958Y582526D02*
X1333682Y604250D01*
X1301958Y582526D02*
X1328682Y609250D01*
X1291958Y582526D02*
X1323932Y614500D01*
X1281958Y582526D02*
X1319000Y619568D01*
X1375234Y599250D02*
X1391958Y582526D01*
X1380234Y604250D02*
X1401958Y582526D01*
X1385234Y609250D02*
X1411958Y582526D01*
X1389984Y614500D02*
X1421958Y582526D01*
X1394916Y619568D02*
X1431958Y582526D01*
D12*
X1353432Y584000D02*
X1355561Y586129D01*
X1346958Y2776277D02*
Y2777276D01*
Y2776277D02*
X1355593Y2767641D01*
X1355561Y2721173D02*
X1355593Y2721206D01*
X1355561Y586129D02*
Y2721173D01*
X1355593Y2721206D02*
Y2767641D01*
X1306958Y2735292D02*
Y2740276D01*
X1309228Y2736232D02*
Y2742007D01*
X1358322Y2721206D02*
Y2767641D01*
X1292533Y2754702D02*
X1306958Y2740276D01*
X1295194Y2756041D02*
X1309228Y2742007D01*
X1326958Y2755306D02*
X1335958Y2746306D01*
X1315593Y2733077D02*
Y2768642D01*
X1326958Y2755306D02*
Y2757276D01*
X1317863Y2734018D02*
Y2791181D01*
X1336003Y636571D02*
Y2706247D01*
X1352767Y2710468D02*
X1352767Y593335D01*
X1349973Y600541D02*
Y2708329D01*
X1347179Y607747D02*
Y2707912D01*
X1344385Y614953D02*
Y2707496D01*
X1341591Y622159D02*
Y2707079D01*
X1338797Y629365D02*
Y2706664D01*
X1366737Y2707623D02*
X1377958Y2718844D01*
X1361149Y593335D02*
X1361149Y2710468D01*
X1358355Y586129D02*
Y2721173D01*
X1363958Y2708055D02*
X1363958Y601526D01*
X1366737Y607747D02*
Y2707623D01*
X1369531Y614953D02*
Y2707207D01*
X1372325Y622159D02*
Y2706790D01*
X1375119Y629365D02*
Y2706375D01*
X1377913Y636571D02*
Y2705958D01*
X1388811Y2716857D01*
X1375119Y2706375D02*
X1386541Y2717797D01*
X1372325Y2706790D02*
X1384271Y2718737D01*
X1346958Y2716277D02*
X1352767Y2710468D01*
X1361149D02*
X1366958Y2716277D01*
X1335958Y2719133D02*
X1347179Y2707912D01*
X1338237Y2720064D02*
X1349973Y2708329D01*
X1315593Y2733077D02*
X1341591Y2707079D01*
X1317863Y2734018D02*
X1344385Y2707496D01*
X1306958Y2735292D02*
X1336003Y2706247D01*
X1358322Y2721206D02*
X1358355Y2721173D01*
X1309228Y2736232D02*
X1338797Y2706664D01*
X1346958Y2716277D02*
Y2737276D01*
X1366958Y2716277D02*
Y2737276D01*
X1335958Y2719133D02*
Y2746306D01*
X1369531Y2707207D02*
X1381944Y2719620D01*
X1363958Y2708055D02*
X1375678Y2719775D01*
X1388811Y2716857D02*
Y2716857D01*
X1386541Y2717797D02*
Y2717797D01*
X1384271Y2718737D02*
Y2718737D01*
X1381944Y2719620D02*
Y2719669D01*
X1384271Y2718737D02*
X1398323Y2732789D01*
X1388811Y2716857D02*
X1406958Y2735003D01*
X1381944Y2719669D02*
X1396053Y2733777D01*
X1386541Y2717797D02*
X1404688Y2735943D01*
X1377958Y2718844D02*
Y2748276D01*
X1406958Y2735003D02*
Y2740276D01*
X1404688Y2735943D02*
Y2742007D01*
X1406958Y2740276D02*
X1421383Y2754702D01*
X1404688Y2742007D02*
X1418722Y2756041D01*
X1398323Y2732789D02*
Y2769464D01*
X1377958Y2748276D02*
X1386958Y2757276D01*
X1396053Y2733777D02*
Y2788276D01*
X1375678Y2719775D02*
Y2808556D01*
X1375119Y629365D02*
X1389984Y614501D01*
X1377913Y636571D02*
X1394916Y619568D01*
X1323932Y614500D02*
Y614501D01*
X1328682Y609250D02*
X1341591Y622159D01*
X1323932Y614501D02*
X1338797Y629365D01*
X1319000Y619568D02*
X1336003Y636571D01*
X1338237Y2720064D02*
Y2808556D01*
X1358322Y2767641D02*
X1366958Y2776277D01*
X1306958Y2777276D02*
X1315593Y2768642D01*
X1398323Y2769464D02*
X1406135Y2777276D01*
X1366958Y2776277D02*
Y2777276D01*
X1406135D02*
X1406958D01*
X1295194Y2756041D02*
Y2807512D01*
X1418722Y2756041D02*
Y2807512D01*
X1395958Y2788276D02*
X1396053D01*
X1421383Y2754702D02*
Y2826851D01*
X1292533Y2754702D02*
Y2826851D01*
X1386958Y2797276D02*
X1395958Y2788276D01*
X1317863Y2791181D02*
X1323958Y2797276D01*
X1326958D01*
X1374818Y2809416D02*
X1375678Y2808556D01*
X1374818Y2809416D02*
Y2809417D01*
X1408958Y2817276D02*
X1418722Y2807512D01*
X1295194D02*
X1304958Y2817276D01*
X1338237Y2808556D02*
X1346958Y2817276D01*
X1366958D02*
X1374818Y2809417D01*
X1346958Y2817276D02*
X1346958D01*
X1304958D02*
X1306958D01*
X1406958D02*
X1408958D01*
X1292533Y2826851D02*
X1302958Y2837276D01*
X1410958D02*
X1421383Y2826851D01*
X1386958Y2837276D02*
X1410958D01*
X1302958D02*
X1326958D01*
X1358355Y586129D02*
X1360484Y584000D01*
X1348250Y588818D02*
X1352767Y593335D01*
Y593335D01*
X1343750Y594318D02*
Y594319D01*
X1349973Y600541D01*
X1338682Y599250D02*
Y599250D01*
X1347179Y607747D01*
X1328682Y609250D02*
Y609250D01*
X1333682Y604250D02*
X1344385Y614953D01*
X1361149Y593335D02*
X1365666Y588818D01*
X1363958Y600527D02*
X1370166Y594319D01*
X1363958Y600527D02*
Y601526D01*
X1366737Y607747D02*
X1375234Y599250D01*
X1369531Y614953D02*
X1380234Y604250D01*
X1372325Y622159D02*
X1385234Y609250D01*
D13*
X1306958Y2817276D02*
D03*
Y2777276D02*
D03*
Y2757276D02*
D03*
X1326958Y2737276D02*
D03*
Y2757276D02*
D03*
Y2777276D02*
D03*
Y2797276D02*
D03*
Y2817276D02*
D03*
X1326958Y2837276D02*
D03*
X1346958Y2737276D02*
D03*
Y2757276D02*
D03*
Y2777276D02*
D03*
Y2797276D02*
D03*
Y2817276D02*
D03*
Y2837276D02*
D03*
X1366958Y2737276D02*
D03*
Y2757276D02*
D03*
Y2777276D02*
D03*
Y2797276D02*
D03*
Y2817276D02*
D03*
Y2837276D02*
D03*
X1386958Y2737276D02*
D03*
Y2757276D02*
D03*
Y2777276D02*
D03*
Y2797276D02*
D03*
Y2817276D02*
D03*
Y2837276D02*
D03*
X1406958Y2777276D02*
D03*
Y2757276D02*
D03*
Y2817276D02*
D03*
Y2797276D02*
D03*
X1306958D02*
D03*
D14*
X1243964Y458332D02*
D03*
X1324208Y435776D02*
D03*
X1314177Y438596D02*
D03*
X1304147Y441415D02*
D03*
X1294116Y444235D02*
D03*
X1284086Y447054D02*
D03*
X1274055Y449874D02*
D03*
X1264025Y452693D02*
D03*
X1253994Y455513D02*
D03*
X1233933Y461151D02*
D03*
X1173750Y478068D02*
D03*
X1193811Y472429D02*
D03*
X1203842Y469610D02*
D03*
X1223903Y463971D02*
D03*
X1213872Y466791D02*
D03*
X1183781Y475249D02*
D03*
M02*
